<svg width="1440" height="2085" viewBox="0 0 1440 2085" fill="none" xmlns="http://www.w3.org/2000/svg">
<mask id="mask0_19_184" style="mask-type:alpha" maskUnits="userSpaceOnUse" x="0" y="0" width="1440" height="2085">
<rect width="1440" height="2085" fill="#242424"/>
</mask>
<g mask="url(#mask0_19_184)">
<rect width="1440" height="2085" fill="#121415"/>
<g filter="url(#filter0_f_19_184)">
<ellipse cx="152.5" cy="373.118" rx="233.5" ry="578.891" fill="#e8b459" fill-opacity="0.6"/>
</g>
<g filter="url(#filter1_f_19_184)">
<ellipse cx="1505.5" cy="578.891" rx="233.5" ry="578.891" fill="#e8b459" fill-opacity="0.6"/>
</g>
<g filter="url(#filter2_f_19_184)">
<ellipse cx="1632.5" cy="1786.96" rx="233.5" ry="578.891" fill="#e8b459" fill-opacity="0.5"/>
</g>
<g filter="url(#filter3_f_19_184)">
<ellipse cx="-101.5" cy="2025.75" rx="233.5" ry="578.891" fill="#e8b459" fill-opacity="0.5"/>
</g>
<path d="M987.588 1836.78L226.781 1560.52L2668.62 957.111L1515.11 1793.05L987.588 1836.78Z" fill="white" fill-opacity="0.02"/>
<path d="M-1092.04 898.651L-371.088 376.184L-568.614 1271.7L-1018.18 1108.46L-1092.04 898.651Z" fill="white" fill-opacity="0.02"/>
<path d="M553.247 345.843L-34.6505 132.369L301.793 -111.448C417.144 -195.042 678.483 -183.8 794.734 -167.729L2316.35 384.789L209.773 1083.8L553.247 345.843Z" fill="white" fill-opacity="0.02"/>
</g>
<defs>
<filter id="filter0_f_19_184" x="-681" y="-805.773" width="1667" height="2357.78" filterUnits="userSpaceOnUse" color-interpolation-filters="sRGB">
<feFlood flood-opacity="0" result="BackgroundImageFix"/>
<feBlend mode="normal" in="SourceGraphic" in2="BackgroundImageFix" result="shape"/>
<feGaussianBlur stdDeviation="300" result="effect1_foregroundBlur_19_184"/>
</filter>
<filter id="filter1_f_19_184" x="672" y="-600" width="1667" height="2357.78" filterUnits="userSpaceOnUse" color-interpolation-filters="sRGB">
<feFlood flood-opacity="0" result="BackgroundImageFix"/>
<feBlend mode="normal" in="SourceGraphic" in2="BackgroundImageFix" result="shape"/>
<feGaussianBlur stdDeviation="300" result="effect1_foregroundBlur_19_184"/>
</filter>
<filter id="filter2_f_19_184" x="799" y="608.065" width="1667" height="2357.78" filterUnits="userSpaceOnUse" color-interpolation-filters="sRGB">
<feFlood flood-opacity="0" result="BackgroundImageFix"/>
<feBlend mode="normal" in="SourceGraphic" in2="BackgroundImageFix" result="shape"/>
<feGaussianBlur stdDeviation="300" result="effect1_foregroundBlur_19_184"/>
</filter>
<filter id="filter3_f_19_184" x="-935" y="846.854" width="1667" height="2357.78" filterUnits="userSpaceOnUse" color-interpolation-filters="sRGB">
<feFlood flood-opacity="0" result="BackgroundImageFix"/>
<feBlend mode="normal" in="SourceGraphic" in2="BackgroundImageFix" result="shape"/>
<feGaussianBlur stdDeviation="300" result="effect1_foregroundBlur_19_184"/>
</filter>
</defs>
</svg>
