<?xml version="1.0" standalone="no"?>
<!DOCTYPE svg PUBLIC "-//W3C//DTD SVG 20010904//EN"
 "http://www.w3.org/TR/2001/REC-SVG-20010904/DTD/svg10.dtd">
<svg version="1.0" xmlns="http://www.w3.org/2000/svg"
 width="1000.000000pt" height="667.000000pt" viewBox="0 0 1000.000000 667.000000"
 preserveAspectRatio="xMidYMid meet">

<g transform="translate(0.000000,667.000000) scale(0.100000,-0.100000)"
fill="#000000" stroke="none">
<path d="M0 5565 c0 -1089 0 -1105 20 -1105 10 0 45 -7 77 -15 32 -9 138 -24
236 -35 180 -20 252 -33 297 -55 14 -7 43 -15 66 -18 40 -7 110 -31 189 -67
22 -10 60 -24 85 -31 25 -6 67 -22 94 -35 28 -13 59 -24 69 -24 24 0 156 -67
472 -238 239 -130 279 -155 400 -244 37 -28 106 -64 167 -88 110 -44 118 -47
188 -79 46 -21 157 -96 194 -130 12 -11 53 -41 91 -66 39 -26 81 -60 94 -77
14 -16 57 -53 95 -82 39 -30 82 -66 96 -81 14 -15 45 -41 70 -57 67 -46 200
-184 200 -208 0 -59 -67 -118 -119 -105 -43 11 -165 91 -208 138 -39 42 -154
131 -205 158 -14 8 -70 54 -123 103 -74 69 -118 100 -192 138 -53 26 -103 48
-110 48 -7 0 -13 6 -13 14 0 8 -19 25 -42 39 -24 13 -72 42 -108 64 -36 21
-90 48 -120 60 -30 11 -63 24 -72 28 -15 6 -18 2 -18 -21 0 -35 19 -72 69
-139 72 -96 78 -142 23 -159 -48 -15 -197 161 -283 334 -44 91 -85 130 -135
130 -19 0 -49 8 -67 17 -18 9 -37 18 -43 19 -37 6 -90 44 -172 123 -52 49
-116 100 -147 115 -61 31 -95 58 -95 74 0 13 -30 21 -70 20 -53 -2 -69 3 -97
26 -26 22 -130 64 -209 85 -18 5 -42 16 -55 25 -13 9 -29 16 -36 16 -7 0 -39
13 -72 29 -32 15 -71 31 -86 35 -15 4 -44 18 -64 32 -19 13 -47 24 -61 24 -14
0 -34 6 -45 13 -22 15 -100 47 -128 53 -10 2 -34 17 -53 34 -19 16 -37 30 -39
30 -3 0 -5 -997 -5 -2215 l0 -2215 5000 0 5000 0 0 1241 c0 883 -3 1246 -11
1261 -8 15 -8 19 0 14 8 -5 11 40 11 158 0 99 -4 167 -10 171 -14 9 -12 43 2
47 9 3 8 9 -5 22 -21 21 -22 30 -2 22 13 -5 15 193 12 1727 l-2 1732 -27 -3
c-16 -1 -28 2 -28 8 0 5 14 10 30 10 l30 0 0 124 c0 104 -3 125 -16 130 -9 3
-523 6 -1144 6 -1066 0 -1129 -1 -1133 -17 -4 -17 -5 -17 -6 0 -1 16 -191 17
-3851 17 l-3850 0 0 -1105z m8850 1040 c-7 -8 -17 -15 -23 -15 -5 0 -2 9 8 20
21 23 35 19 15 -5z m850 10 c-7 -8 -18 -15 -24 -15 -6 0 -2 7 8 15 25 19 32
19 16 0z m-1512 -32 c-10 -2 -26 -2 -35 0 -10 3 -2 5 17 5 19 0 27 -2 18 -5z
m-348 -65 c0 -6 -3 -8 -7 -5 -3 4 -12 2 -20 -4 -10 -9 -13 -6 -13 15 0 24 2
25 20 16 11 -6 20 -16 20 -22z m1328 -10 c-6 -18 -58 -30 -58 -13 0 15 15 23
43 24 10 1 17 -4 15 -11z m-498 -14 c0 -2 -7 -4 -15 -4 -8 0 -15 4 -15 10 0 5
7 7 15 4 8 -4 15 -8 15 -10z m-804 -32 c-18 -16 -18 -16 -6 6 6 13 14 21 18
18 3 -4 -2 -14 -12 -24z m1884 24 c0 -2 -8 -10 -17 -17 -16 -13 -17 -12 -4 4
13 16 21 21 21 13z m-3370 -71 c0 -5 -5 -3 -10 5 -5 8 -10 20 -10 25 0 6 5 3
10 -5 5 -8 10 -19 10 -25z m3475 15 c-3 -5 -12 -10 -18 -10 -7 0 -6 4 3 10 19
12 23 12 15 0z m-4575 -10 c0 -5 -4 -10 -10 -10 -5 0 -10 5 -10 10 0 6 5 10
10 10 6 0 10 -4 10 -10z m4584 -41 c-22 -10 -49 -18 -62 -18 -34 -1 -58 -27
-42 -46 14 -17 10 -18 -23 -6 -31 12 -31 55 1 59 11 2 26 9 32 17 8 10 31 13
72 12 l60 -1 -38 -17z m-2354 -100 c0 -5 -9 -9 -20 -9 -22 0 -27 16 -7 23 15
5 27 -1 27 -14z m240 -28 c0 -6 -4 -13 -10 -16 -5 -3 -10 1 -10 9 0 9 5 16 10
16 6 0 10 -4 10 -9z m-1190 -52 c0 -6 -4 -7 -10 -4 -5 3 -10 11 -10 16 0 6 5
7 10 4 6 -3 10 -11 10 -16z m1030 6 c0 -8 -4 -15 -10 -15 -5 0 -7 7 -4 15 4 8
8 15 10 15 2 0 4 -7 4 -15z m1099 12 c-2 -1 -13 -9 -24 -17 -19 -14 -19 -14
-6 3 7 9 18 17 24 17 6 0 8 -1 6 -3z m-2275 -22 c3 -8 1 -15 -4 -15 -6 0 -10
7 -10 15 0 8 2 15 4 15 2 0 6 -7 10 -15z m2021 -5 c-3 -5 -20 -10 -36 -10 -18
0 -28 4 -24 10 3 6 20 10 36 10 18 0 28 -4 24 -10z m-1965 -38 c0 -7 -4 -10
-10 -7 -5 3 -10 16 -10 28 0 18 2 19 10 7 5 -8 10 -21 10 -28z m3315 28 c4 -6
-8 -10 -29 -10 -19 0 -38 5 -41 10 -4 6 8 10 29 10 19 0 38 -4 41 -10z m-2138
-22 c-3 -8 -6 -5 -6 6 -1 11 2 17 5 13 3 -3 4 -12 1 -19z m403 -3 c0 -2 -10
-10 -22 -16 -21 -11 -22 -11 -9 4 13 16 31 23 31 12z m1793 -2 c-7 -2 -19 -2
-25 0 -7 3 -2 5 12 5 14 0 19 -2 13 -5z m-3380 -28 c26 -17 27 -17 20 0 -4 13
-3 16 5 11 7 -4 12 -14 12 -22 0 -8 5 -12 10 -9 6 3 10 15 10 26 0 15 5 18 23
15 26 -5 91 -62 83 -74 -7 -12 11 -38 21 -29 4 5 1 13 -7 18 -13 9 -13 10 0 6
22 -6 18 -32 -5 -30 -11 1 -23 -4 -27 -10 -13 -21 -9 -28 12 -17 14 7 20 7 20
0 0 -5 8 -10 18 -10 14 0 15 -2 2 -10 -13 -8 -13 -10 2 -10 9 0 21 -14 27 -32
9 -25 14 -30 21 -19 7 12 11 12 24 2 13 -11 19 -11 33 0 13 11 15 11 9 1 -8
-13 -2 -21 56 -81 19 -20 28 -41 31 -76 2 -27 9 -51 16 -53 19 -6 12 -22 -9
-22 -11 0 -21 -6 -22 -12 -4 -36 -2 -44 9 -56 17 -18 17 -35 -1 -29 -22 9 -14
-25 12 -50 13 -12 48 -27 78 -33 30 -6 80 -22 112 -35 31 -13 74 -26 94 -30
21 -4 42 -13 49 -21 6 -8 20 -14 30 -14 11 0 19 -4 19 -10 0 -5 5 -10 11 -10
6 0 26 -12 44 -26 19 -14 38 -23 42 -21 5 3 15 -8 22 -24 7 -16 17 -27 22 -23
5 3 14 -7 19 -21 6 -15 21 -41 35 -59 14 -18 22 -36 17 -41 -4 -5 -2 -5 4 -2
6 3 21 -12 33 -34 14 -24 27 -37 34 -32 7 4 6 -1 -2 -10 -11 -14 -11 -17 0
-18 10 0 10 -2 2 -6 -9 -3 -5 -16 12 -41 16 -25 23 -46 20 -64 -4 -20 0 -28
14 -33 14 -4 18 -12 14 -23 -5 -13 -3 -14 7 -5 16 15 40 6 40 -16 0 -27 -11
-32 -34 -16 -25 18 -48 20 -26 2 24 -18 23 -58 -1 -64 -21 -6 -20 -30 1 -25 8
2 10 -3 6 -13 -3 -8 -9 -22 -12 -30 -7 -16 4 -19 31 -9 12 5 13 9 5 14 -20 12
-3 49 20 43 13 -4 18 -13 18 -34 -1 -16 -5 -29 -11 -29 -5 0 -4 -7 3 -15 7 -9
19 -14 26 -11 8 3 11 0 8 -9 -6 -16 -47 -11 -53 6 -2 8 -6 7 -12 -2 -6 -10 -9
-11 -9 -1 0 6 -5 12 -11 12 -5 0 -7 -4 -4 -10 4 -6 -7 -10 -24 -10 -26 0 -31
4 -31 23 0 13 5 28 10 33 7 7 4 17 -8 30 -15 16 -16 22 -6 32 7 7 19 12 26 13
7 0 1 5 -14 11 -16 5 -28 15 -28 21 0 6 -13 -2 -30 -18 l-29 -28 -11 29 c-10
25 -8 30 12 46 l23 19 -32 -5 c-17 -2 -34 -1 -37 2 -4 3 -17 6 -31 7 -25 1
-26 0 -29 -57 -2 -25 -15 -33 -29 -16 -14 17 -52 33 -42 18 3 -6 0 -10 -7 -10
-11 0 -11 -2 0 -8 15 -10 0 -62 -18 -62 -5 0 -10 -5 -10 -11 0 -8 5 -8 15 1
18 15 19 9 3 -25 -11 -24 -15 -27 -47 -29 -17 -1 -28 -26 -12 -26 6 0 11 -9
11 -20 0 -22 -26 -28 -33 -7 -2 6 -8 -6 -12 -27 -6 -31 -4 -42 9 -51 19 -14
22 -30 4 -19 -10 6 -10 5 -1 -7 21 -27 19 -72 -4 -98 -19 -19 -22 -31 -17 -62
8 -49 -9 -52 -36 -7 -17 28 -17 34 -4 52 28 40 9 49 -33 16 -14 -11 -34 -20
-43 -20 -10 0 -20 -9 -23 -20 -4 -15 -14 -20 -40 -20 -20 0 -38 -4 -41 -9 -3
-4 -24 -11 -47 -15 -34 -5 -39 -9 -29 -21 6 -8 10 -24 8 -37 -4 -27 -50 -37
-74 -17 -12 9 -20 9 -40 -2 -22 -11 -27 -11 -35 1 -9 16 -12 14 -38 -29 -6 -9
-15 -11 -27 -6 -13 5 -15 9 -6 12 25 10 13 40 -19 47 -19 3 -33 13 -36 25 -3
11 -11 17 -18 15 -8 -3 -19 4 -25 16 -7 12 -16 18 -23 13 -7 -4 -19 -8 -27 -8
-8 0 -14 -8 -14 -17 1 -10 -2 -18 -7 -18 -5 0 -9 7 -9 15 0 24 -42 66 -61 60
-9 -3 -19 1 -22 9 -7 16 -67 51 -67 39 0 -5 -4 -2 -9 6 -7 11 -10 9 -16 -8 -3
-11 -11 -21 -17 -21 -5 0 -7 8 -4 18 4 10 -3 7 -18 -10 -17 -19 -27 -23 -35
-15 -7 7 -22 7 -52 -3 -23 -8 -52 -14 -63 -15 -14 0 -20 -6 -19 -19 2 -26 -16
-42 -58 -52 -44 -10 -70 -6 -85 13 -10 14 -12 14 -25 -4 -10 -14 -25 -19 -51
-18 -26 1 -35 -2 -31 -12 3 -7 0 -13 -6 -13 -6 0 -8 -8 -5 -17 5 -14 4 -15 -4
-4 -6 8 -17 11 -25 8 -9 -3 -26 7 -43 25 -16 16 -42 37 -59 45 -16 8 -55 42
-86 75 -56 59 -60 70 -42 118 4 8 5 20 3 25 -2 6 -4 60 -4 121 -1 72 -5 116
-13 126 -7 8 -10 18 -6 21 3 4 -1 7 -10 7 -8 0 -19 -10 -23 -22 -4 -13 -12
-27 -18 -31 -7 -6 -4 -7 7 -3 10 3 17 0 17 -8 0 -8 -9 -16 -20 -19 -13 -3 -20
0 -20 10 0 9 -5 11 -12 7 -21 -13 -91 -3 -104 14 -11 14 -9 57 2 71 2 2 16 -4
31 -14 23 -15 26 -16 15 -2 -8 9 -11 25 -7 37 6 20 8 20 31 5 14 -9 24 -11 24
-5 0 6 4 9 10 5 5 -3 18 2 29 12 15 13 18 20 9 30 -8 10 -6 17 8 28 11 9 13
13 4 10 -8 -3 -21 4 -28 15 -11 17 -10 20 7 20 11 0 23 5 26 10 4 6 10 8 15 5
5 -3 11 -1 15 5 4 6 10 8 14 6 13 -8 12 57 -1 66 -10 6 -10 10 1 17 12 8 12
12 3 24 -10 12 -10 18 3 30 19 19 19 27 1 27 -8 0 -21 6 -28 13 -43 40 -57 45
-24 9 38 -40 44 -59 15 -47 -8 3 -23 20 -34 38 -11 18 -28 32 -36 32 -9 0 -23
6 -31 13 -8 6 -17 11 -19 9 -2 -1 7 8 20 20 22 21 23 25 9 40 -9 10 -20 28
-27 40 -9 18 -8 20 8 16 11 -3 17 -11 15 -17 -3 -7 3 -19 12 -27 16 -12 17
-12 11 4 -4 12 -1 17 10 17 14 0 14 2 -3 16 -10 8 -12 13 -4 9 9 -4 8 0 -3 8
-17 14 -17 15 -1 19 17 3 17 4 0 21 -24 23 -14 71 13 64 10 -2 23 3 29 14 15
24 16 52 1 43 -7 -4 -10 -1 -7 7 3 8 11 13 17 11 6 -1 14 6 17 15 12 36 66
139 94 178 15 22 26 43 24 47 -3 4 5 12 16 18 11 6 19 14 16 18 -2 4 1 18 6
32 9 24 10 24 23 6 14 -18 15 -18 34 5 19 22 20 22 21 5 0 -19 1 -19 13 -2 9
13 27 18 63 19 28 0 55 -3 62 -7 6 -3 16 2 22 14 6 11 17 20 25 20 19 0 38
-37 30 -58 -3 -9 -3 -13 1 -9 4 4 14 1 22 -6 10 -8 13 -8 9 -1 -4 7 0 14 8 18
8 3 15 13 15 22 0 10 5 14 15 10 16 -6 31 33 22 58 -3 7 0 19 6 25 15 15 40
14 32 -1 -4 -7 1 -4 9 6 9 11 16 24 16 28 0 5 6 8 13 6 6 -1 30 2 52 7 22 4
45 8 51 7 6 -1 17 5 24 13 16 19 34 19 26 0 -3 -8 0 -15 7 -15 16 0 37 20 37
35 0 5 -7 1 -15 -9 -8 -11 -15 -15 -15 -10 0 17 22 33 38 27 11 -5 13 -3 7 6
-19 31 53 36 98 6z m-198 -16 c-10 -15 -25 -10 -19 6 4 8 10 12 15 9 5 -3 7
-10 4 -15z m1025 7 c0 -3 -4 -8 -10 -11 -5 -3 -10 -1 -10 4 0 6 5 11 10 11 6
0 10 -2 10 -4z m-1506 -14 c2 -4 1 -14 -4 -22 -7 -11 -12 -12 -21 -3 -6 6 -8
16 -5 22 8 13 23 14 30 3z m-2583 -15 c-1 -12 -15 -9 -19 4 -3 6 1 10 8 8 6
-3 11 -8 11 -12z m279 -18 c76 -15 132 -48 219 -129 77 -71 109 -127 87 -151
-8 -9 -7 -10 7 -6 12 5 17 1 17 -12 0 -10 7 -21 15 -25 8 -3 15 -1 15 4 0 6 9
1 20 -10 10 -10 41 -29 67 -40 26 -12 57 -25 68 -30 11 -5 59 -27 106 -48 48
-22 92 -48 98 -58 6 -11 11 -14 11 -9 0 6 6 -1 13 -14 6 -13 26 -31 44 -41 17
-9 42 -23 55 -32 33 -21 99 -43 123 -39 20 3 20 3 1 -18 -15 -16 -16 -21 -5
-25 18 -5 130 -25 149 -26 116 -5 138 -17 261 -135 21 -19 40 -35 45 -35 4 0
33 -26 64 -57 31 -32 89 -89 129 -128 40 -38 87 -87 104 -108 34 -44 97 -87
126 -87 10 0 24 -7 31 -15 7 -9 19 -14 26 -11 7 3 15 -2 18 -10 3 -8 2 -12 -3
-9 -5 3 -12 1 -15 -3 -3 -5 8 -19 24 -31 34 -25 39 -47 12 -56 -26 -8 -42 -47
-35 -89 4 -26 0 -44 -17 -70 -12 -20 -25 -36 -30 -36 -4 0 -10 -24 -13 -52
-11 -113 -52 -214 -98 -239 -33 -17 -136 -2 -154 24 -15 21 -11 42 6 32 12 -8
12 -7 -11 61 -11 32 -20 67 -20 77 -1 55 -95 174 -156 197 -13 5 -27 18 -31
27 -10 27 -35 43 -58 38 -11 -2 -27 0 -35 5 -10 6 -20 4 -31 -6 -10 -9 -20
-11 -23 -6 -3 5 1 15 9 22 8 7 15 20 15 29 0 23 19 41 36 34 17 -6 18 9 2 25
-14 14 -48 16 -48 3 0 -5 -11 -8 -23 -5 -21 3 -24 0 -25 -27 -1 -30 -20 -64
-30 -54 -3 3 -7 13 -9 23 -11 58 -8 64 65 141 81 83 90 99 84 142 -4 24 -14
35 -53 54 -29 15 -55 37 -64 55 -16 32 -85 72 -145 85 -39 9 -90 43 -90 61 0
7 -5 14 -11 16 -6 2 -11 16 -11 30 0 26 -2 27 -52 21 -28 -3 -59 -10 -68 -14
-48 -25 -118 10 -176 87 -34 45 -42 50 -88 55 -28 4 -60 12 -72 18 -19 10 -22
9 -22 -8 0 -25 -18 -37 -26 -17 -3 9 -10 14 -14 11 -5 -3 -11 -1 -15 5 -4 6
-10 8 -15 5 -5 -3 -20 0 -33 6 -22 10 -33 28 -37 64 -1 6 -7 16 -13 24 -9 10
-7 16 8 28 58 42 75 57 75 68 0 14 -52 84 -63 85 -4 0 -22 14 -40 30 -18 17
-97 62 -177 100 -80 39 -152 74 -160 79 -8 6 -43 27 -77 47 -35 21 -63 42 -63
47 0 6 -11 25 -25 43 -14 19 -20 34 -14 36 16 5 175 -10 239 -23z m2565 -49
c3 -5 1 -10 -4 -10 -6 0 -11 5 -11 10 0 6 2 10 4 10 3 0 8 -4 11 -10z m2769 2
c3 -5 -8 -6 -25 -4 -16 2 -29 6 -29 8 0 8 49 4 54 -4z m-2982 -64 c-18 -18
-20 -18 -36 -3 -24 25 -16 49 19 55 24 4 31 2 33 -14 2 -10 -5 -27 -16 -38z
m198 7 c0 -2 -10 -9 -22 -15 -22 -11 -22 -10 -4 4 21 17 26 19 26 11z m1427
-27 c-3 -8 -6 -5 -6 6 -1 11 2 17 5 13 3 -3 4 -12 1 -19z m828 2 c-3 -5 -12
-10 -18 -10 -7 0 -6 4 3 10 19 12 23 12 15 0z m-2259 -27 c-10 -10 -19 5 -10
18 6 11 8 11 12 0 2 -7 1 -15 -2 -18z m2435 -46 c-6 -8 -8 -16 -5 -20 5 -5
-46 -37 -59 -37 -2 0 -3 10 -2 22 1 15 12 26 36 34 44 16 43 16 30 1z m-3997
-12 c-6 -16 -24 -21 -24 -7 0 11 11 22 21 22 5 0 6 -7 3 -15z m3763 -31 c-3
-3 -12 -4 -19 -1 -8 3 -5 6 6 6 11 1 17 -2 13 -5z m507 -33 c-5 -5 -26 -12
-48 -15 -29 -6 -37 -4 -33 6 2 7 14 12 26 10 13 -1 30 2 39 7 19 11 30 5 16
-8z m-1774 -11 c0 -5 -5 -10 -11 -10 -5 0 -7 5 -4 10 3 6 8 10 11 10 2 0 4 -4
4 -10z m615 -10 c3 -5 2 -10 -4 -10 -5 0 -13 5 -16 10 -3 6 -2 10 4 10 5 0 13
-4 16 -10z m15 -24 c0 -3 -4 -8 -10 -11 -5 -3 -10 -1 -10 4 0 6 5 11 10 11 6
0 10 -2 10 -4z m-615 -16 c3 -5 2 -10 -4 -10 -5 0 -13 5 -16 10 -3 6 -2 10 4
10 5 0 13 -4 16 -10z m856 -7 c-11 -5 -11 -7 0 -14 11 -7 10 -9 -3 -9 -10 0
-18 7 -18 15 0 8 8 15 18 14 12 0 13 -2 3 -6z m1066 -30 c4 -10 -57 -25 -66
-17 -3 2 4 10 14 18 21 15 47 15 52 -1z m-1090 -29 c-3 -3 -12 -4 -19 -1 -8 3
-5 6 6 6 11 1 17 -2 13 -5z m-4072 -82 c-3 -3 -11 0 -18 7 -9 10 -8 11 6 5 10
-3 15 -9 12 -12z m1635 -34 c0 -13 -23 -5 -28 10 -2 7 2 10 12 6 9 -3 16 -11
16 -16z m2338 -35 c-2 -10 -13 -19 -26 -21 -24 -4 -25 -2 -16 22 9 23 46 21
42 -1z m1762 7 c0 -5 -7 -10 -15 -10 -8 0 -15 5 -15 10 0 6 7 10 15 10 8 0 15
-4 15 -10z m-4120 -42 c0 -6 -7 -5 -15 2 -8 7 -15 17 -15 22 0 6 7 5 15 -2 8
-7 15 -17 15 -22z m2410 13 c0 -5 -7 -11 -15 -15 -15 -5 -20 5 -8 17 9 10 23
9 23 -2z m875 -39 c-6 -7 -35 18 -35 31 0 5 9 2 20 -8 11 -10 18 -20 15 -23z
m-1005 14 c0 -2 -7 -7 -16 -10 -8 -3 -12 -2 -9 4 6 10 25 14 25 6z m-2500 -24
c0 -11 -22 -32 -33 -32 -5 0 -4 6 2 13 6 8 8 17 4 20 -3 4 1 7 10 7 10 0 17
-4 17 -8z m2720 3 c0 -2 -10 -9 -22 -15 -22 -11 -22 -10 -4 4 21 17 26 19 26
11z m50 -19 c0 -2 -8 -10 -17 -17 -16 -13 -17 -12 -4 4 13 16 21 21 21 13z
m485 -6 c7 -12 -12 -12 -40 0 -18 8 -17 9 7 9 15 1 30 -3 33 -9z m900 -10 c6
0 4 -4 -3 -8 -17 -12 -70 -3 -76 13 -3 10 4 11 32 4 20 -5 42 -9 47 -9z
m-8025 -30 c0 -5 -2 -10 -4 -10 -3 0 -8 5 -11 10 -3 6 -1 10 4 10 6 0 11 -4
11 -10z m250 -22 c8 -3 53 -24 100 -48 47 -25 102 -53 124 -63 25 -12 35 -22
28 -29 -11 -11 -26 -3 -104 50 -28 19 -48 27 -48 20 0 -7 -5 -5 -11 5 -6 9
-14 15 -20 12 -5 -4 -12 0 -15 9 -9 24 -163 53 -176 33 -4 -6 -10 -8 -13 -5
-4 4 -4 12 0 18 7 11 89 9 135 -2z m6395 -8 c-3 -5 -11 -10 -16 -10 -6 0 -7 5
-4 10 3 6 11 10 16 10 6 0 7 -4 4 -10z m358 3 c-7 -2 -21 -2 -30 0 -10 3 -4 5
12 5 17 0 24 -2 18 -5z m887 -14 c0 -5 -4 -9 -8 -9 -5 0 -9 7 -9 15 0 8 4 12
9 9 4 -3 8 -9 8 -15z m514 5 c8 -20 -1 -34 -19 -34 -16 0 -38 34 -28 44 12 12
41 6 47 -10z m-4247 -14 c2 -22 -12 -27 -23 -9 -5 9 5 22 21 29 1 0 1 -9 2
-20z m2713 0 c-8 -5 -17 -7 -19 -4 -3 3 1 9 9 14 8 5 17 7 19 4 3 -3 -1 -9 -9
-14z m-4237 -17 c5 -26 4 -26 -9 -8 -16 22 -18 35 -5 35 5 0 11 -12 14 -27z
m1080 20 c-7 -2 -19 -2 -25 0 -7 3 -2 5 12 5 14 0 19 -2 13 -5z m3637 -15 c0
-13 -32 -6 -37 9 -3 7 3 9 16 6 12 -3 21 -10 21 -15z m1288 -1 c2 -10 -3 -17
-11 -17 -16 0 -30 24 -19 34 10 10 27 1 30 -17z m-1401 6 c-4 -3 -2 -12 4 -19
7 -8 6 -14 -2 -20 -8 -4 -9 -3 -5 4 4 7 1 12 -7 12 -7 0 -14 7 -14 15 0 8 7
15 15 15 9 0 12 -3 9 -7z m286 0 c-7 -2 -19 -2 -25 0 -7 3 -2 5 12 5 14 0 19
-2 13 -5z m-7449 -26 c3 4 6 2 6 -4 0 -6 -12 -14 -27 -18 -16 -3 -37 -14 -47
-23 -11 -9 -17 -12 -15 -7 29 61 31 64 54 55 13 -5 26 -6 29 -3z m6506 3 c0
-5 -5 -10 -11 -10 -5 0 -7 5 -4 10 3 6 8 10 11 10 2 0 4 -4 4 -10z m-2445 -20
c10 -11 16 -20 13 -20 -3 0 -13 9 -23 20 -10 11 -16 20 -13 20 3 0 13 -9 23
-20z m3250 10 c3 -5 1 -10 -4 -10 -6 0 -11 5 -11 10 0 6 2 10 4 10 3 0 8 -4
11 -10z m436 -10 l24 -21 -32 16 c-32 15 -42 25 -24 25 5 0 19 -9 32 -20z
m-8044 4 c-3 -3 -12 -4 -19 -1 -8 3 -5 6 6 6 11 1 17 -2 13 -5z m403 -4 c0 -5
-2 -10 -4 -10 -3 0 -8 5 -11 10 -3 6 -1 10 4 10 6 0 11 -4 11 -10z m7337 -6
c-3 -3 -12 -4 -19 -1 -8 3 -5 6 6 6 11 1 17 -2 13 -5z m933 -15 c0 -13 -60
-41 -76 -35 -23 9 -16 26 18 40 32 14 58 12 58 -5z m-8744 -16 c-10 -10 -19 5
-10 18 6 11 8 11 12 0 2 -7 1 -15 -2 -18z m7459 17 c3 -5 -1 -10 -10 -10 -9 0
-13 5 -10 10 3 6 8 10 10 10 2 0 7 -4 10 -10z m-50 -20 c-3 -5 -17 -10 -31
-10 -14 0 -22 4 -19 10 3 6 17 10 31 10 14 0 22 -4 19 -10z m148 3 c-7 -2 -19
-2 -25 0 -7 3 -2 5 12 5 14 0 19 -2 13 -5z m-6685 -53 c63 -34 98 -58 176
-118 44 -35 83 -68 85 -74 6 -17 -35 9 -89 57 -27 24 -82 63 -122 86 -89 52
-108 67 -108 88 1 13 3 12 16 -4 8 -11 27 -27 42 -35z m5696 35 c-10 -8 -23
-14 -29 -14 -5 0 -1 6 9 14 11 8 24 15 30 15 5 0 1 -7 -10 -15z m1096 -15 c0
-5 -7 -7 -15 -4 -8 4 -15 8 -15 10 0 2 7 4 15 4 8 0 15 -4 15 -10z m-745 -10
c-3 -5 -16 -10 -28 -9 -21 0 -21 1 -2 9 28 12 37 12 30 0z m369 -9 c8 -12 -14
-19 -37 -13 -15 4 -16 7 -5 13 17 11 35 11 42 0z m704 0 c10 -6 7 -10 -13 -15
-30 -8 -41 -3 -30 13 7 13 25 14 43 2z m-1230 -34 c2 -11 -3 -17 -16 -17 -24
0 -32 8 -25 26 7 20 37 13 41 -9z m56 17 c23 -9 20 -24 -4 -24 -11 0 -20 7
-20 15 0 17 2 18 24 9z m226 -8 c0 -2 -7 -7 -16 -10 -8 -3 -12 -2 -9 4 6 10
25 14 25 6z m780 -16 c-8 -5 -19 -10 -25 -10 -5 0 -3 5 5 10 8 5 20 10 25 10
6 0 3 -5 -5 -10z m-3300 -10 c0 -13 -11 -13 -30 0 -12 8 -11 10 8 10 12 0 22
-4 22 -10z m2655 0 c-3 -5 -15 -10 -26 -10 -10 0 -19 5 -19 10 0 6 12 10 26
10 14 0 23 -4 19 -10z m782 4 c-3 -3 -12 -4 -19 -1 -8 3 -5 6 6 6 11 1 17 -2
13 -5z m-821 -29 c16 -13 17 -16 4 -24 -8 -5 -24 -16 -34 -24 -18 -13 -21 -12
-36 17 -9 17 -15 34 -13 39 7 13 58 8 79 -8z m-6813 -16 c4 -16 3 -18 -9 -8
-16 13 -19 29 -5 29 5 0 11 -9 14 -21z m4063 5 c17 -14 17 -15 1 -10 -10 3
-23 6 -28 6 -5 0 -9 5 -9 10 0 14 13 12 36 -6z m3634 -15 c0 -6 -7 -6 -20 1
-11 6 -20 15 -20 21 0 6 7 6 20 -1 11 -6 20 -15 20 -21z m-1061 12 c11 -7 10
-11 -7 -20 -14 -7 -23 -8 -27 -1 -3 5 2 10 12 11 16 0 16 1 -2 9 -13 6 -15 9
-5 9 8 0 21 -3 29 -8z m276 -1 c-3 -5 -13 -10 -21 -10 -8 0 -12 5 -9 10 3 6
13 10 21 10 8 0 12 -4 9 -10z m75 -9 c0 -16 -27 -31 -44 -25 -30 11 -16 34 21
34 13 0 23 -4 23 -9z m304 -16 c3 -10 -1 -15 -14 -15 -20 0 -33 13 -23 24 11
11 31 6 37 -9z m-4223 -18 c-10 -9 -11 -8 -5 6 3 10 9 15 12 12 3 -3 0 -11 -7
-18z m124 3 c3 -5 1 -10 -4 -10 -6 0 -11 5 -11 10 0 6 2 10 4 10 3 0 8 -4 11
-10z m3665 -5 c-7 -8 -28 -15 -49 -15 -34 1 -35 2 -17 15 11 8 33 15 49 15 25
0 28 -2 17 -15z m-6210 -9 c0 -3 -4 -8 -10 -11 -5 -3 -10 -1 -10 4 0 6 5 11
10 11 6 0 10 -2 10 -4z m6565 -6 c-4 -6 6 -10 21 -10 17 0 24 -4 19 -9 -15
-15 -65 -2 -58 15 3 8 9 14 15 14 5 0 6 -4 3 -10z m-6483 -26 c29 -15 43 -32
34 -41 -3 -4 -14 1 -24 10 -10 10 -22 14 -25 10 -4 -3 -13 2 -21 12 -7 10 -18
15 -24 11 -7 -4 -12 -1 -12 9 0 18 21 14 72 -11z m7757 17 c10 -6 10 -10 1
-16 -15 -10 -62 3 -55 15 8 12 35 13 54 1z m-104 -11 c4 -6 -6 -10 -22 -9 -25
0 -26 1 -8 9 11 5 21 9 22 9 1 1 5 -3 8 -9z m-7935 -24 c0 -6 10 -22 23 -36
12 -14 28 -37 36 -52 8 -16 18 -28 22 -28 5 0 6 -7 3 -15 -4 -9 0 -15 10 -15
9 0 16 -8 16 -20 0 -11 7 -20 15 -20 15 0 20 -22 15 -65 -3 -27 -3 -27 -42
-20 -37 7 -61 41 -73 103 -4 17 -10 32 -15 32 -4 0 -11 16 -14 35 -4 19 -11
35 -16 35 -6 0 -10 6 -10 14 0 8 -5 16 -11 18 -6 2 -8 14 -4 30 5 19 11 24 26
21 10 -3 19 -10 19 -17z m2580 -1 c-7 -9 -15 -13 -17 -11 -7 7 7 26 19 26 6 0
6 -6 -2 -15z m1147 -51 c-9 -9 -48 26 -41 37 3 5 15 0 26 -11 12 -11 19 -23
15 -26z m-3315 10 c12 -10 18 -13 14 -6 -4 6 -3 12 1 12 15 0 33 -23 33 -41 0
-9 26 -37 58 -62 31 -25 81 -69 110 -96 30 -28 58 -51 63 -51 5 0 9 -7 9 -15
0 -7 6 -18 13 -22 8 -4 41 -44 75 -88 33 -44 68 -88 76 -97 9 -10 16 -24 16
-32 0 -8 11 -28 25 -44 14 -17 25 -34 25 -39 0 -21 33 -75 55 -89 19 -13 59
-99 58 -124 0 -3 8 -11 18 -18 14 -10 17 -21 13 -47 -4 -27 -2 -35 9 -35 15 0
27 -20 27 -46 0 -8 8 -27 18 -41 20 -32 23 -73 6 -73 -7 0 -16 5 -20 11 -4 7
-23 8 -52 4 -32 -5 -47 -3 -54 7 -7 10 -8 10 -7 -2 5 -33 -13 -50 -51 -50 -67
0 -100 11 -104 34 -18 97 -28 155 -31 176 -1 14 -3 25 -5 25 -1 0 -4 34 -6 75
-6 107 -6 110 -26 110 -23 0 -23 26 -1 39 14 7 15 12 4 25 -8 9 -10 26 -7 43
5 21 0 37 -17 61 -23 31 -29 84 -13 111 4 5 -47 65 -114 131 -66 67 -120 125
-120 130 0 6 -6 10 -13 10 -7 0 -18 9 -25 20 -14 22 -85 70 -104 70 -13 0 -40
35 -33 42 10 10 57 -1 77 -18z m5442 11 c-4 -8 -10 -12 -15 -9 -11 6 -2 24 11
24 5 0 7 -7 4 -15z m746 6 c0 -10 -42 -23 -49 -15 -7 6 20 24 37 24 6 0 12 -4
12 -9z m-506 -12 c-3 -6 -30 -22 -58 -35 -28 -13 -43 -24 -33 -24 9 0 17 -5
17 -11 0 -8 -11 -9 -31 -5 -17 3 -40 6 -50 6 -11 0 -19 5 -19 10 0 6 9 10 20
10 19 0 71 19 120 45 32 17 43 18 34 4z m-2329 -17 c-3 -3 -11 0 -18 7 -9 10
-8 11 6 5 10 -3 15 -9 12 -12z m2142 12 c-3 -3 -12 -4 -19 -1 -8 3 -5 6 6 6
11 1 17 -2 13 -5z m300 0 c-3 -3 -12 -4 -19 -1 -8 3 -5 6 6 6 11 1 17 -2 13
-5z m-117 -34 c-16 -11 -40 -13 -40 -5 0 8 44 24 50 18 2 -2 -2 -8 -10 -13z
m110 -10 c0 -5 -7 -10 -15 -10 -8 0 -15 5 -15 10 0 6 7 10 15 10 8 0 15 -4 15
-10z m1190 0 c-19 -13 -30 -13 -30 0 0 6 10 10 23 10 18 0 19 -2 7 -10z m-346
-21 c-3 -5 -9 -7 -14 -4 -4 3 -7 -3 -6 -12 2 -26 -58 -35 -73 -12 -9 16 -7 19
17 24 15 4 34 10 42 14 18 10 42 3 34 -10z m-834 -7 c0 -13 -12 -22 -22 -16
-10 6 -1 24 13 24 5 0 9 -4 9 -8z m-3520 -22 c0 -5 -5 -10 -11 -10 -5 0 -7 5
-4 10 3 6 8 10 11 10 2 0 4 -4 4 -10z m3380 6 c0 -2 -7 -7 -16 -10 -8 -3 -12
-2 -9 4 6 10 25 14 25 6z m30 -16 c0 -5 -5 -10 -11 -10 -5 0 -7 5 -4 10 3 6 8
10 11 10 2 0 4 -4 4 -10z m-186 -9 c3 -5 -1 -12 -10 -15 -20 -8 -29 -1 -19 13
8 13 22 14 29 2z m728 -4 c-24 -7 -36 -7 -44 1 -9 9 -1 12 33 11 l44 -1 -33
-11z m1423 -7 c3 -5 1 -10 -4 -10 -6 0 -11 5 -11 10 0 6 2 10 4 10 3 0 8 -4
11 -10z m-2360 -11 c10 -15 -1 -23 -20 -15 -9 3 -13 10 -10 16 8 13 22 13 30
-1z m301 -13 c-4 -16 -1 -26 9 -30 8 -3 15 -12 15 -21 0 -8 7 -15 16 -15 13 0
14 -3 5 -14 -10 -12 -5 -14 34 -14 28 0 53 -7 64 -16 9 -9 26 -13 38 -10 34 9
71 -80 39 -92 -12 -5 -11 -9 5 -25 22 -22 30 -24 27 -7 -5 22 36 20 50 -2 12
-19 11 -22 -7 -27 -12 -3 -21 -11 -21 -18 0 -7 -3 -27 -6 -44 -5 -25 -4 -30 9
-26 12 5 14 -2 11 -42 -2 -26 -1 -40 2 -30 8 26 38 17 43 -13 1 -14 6 -27 11
-30 13 -9 22 -50 11 -50 -24 0 -9 -29 17 -32 21 -2 28 -9 30 -30 2 -21 -1 -28
-13 -28 -9 0 -13 -5 -10 -10 8 -14 -44 -5 -59 10 -22 22 -37 11 -31 -24 5 -25
3 -36 -8 -42 -13 -8 -10 -17 18 -58 25 -38 31 -54 24 -67 -12 -24 -11 -76 2
-85 6 -3 9 -19 5 -34 -3 -15 -2 -30 1 -34 9 -9 12 -66 3 -66 -4 0 -13 7 -20
15 -7 8 -23 15 -36 15 -30 0 -32 26 -2 34 18 4 20 8 10 18 -18 18 -15 55 5 67
10 5 15 13 11 16 -4 4 -12 3 -19 -1 -21 -13 -59 -13 -60 -1 -1 7 -2 24 -2 40
-1 24 -12 33 -39 28 -11 -1 -10 13 2 44 5 14 25 33 42 41 l33 15 -31 -5 c-23
-4 -37 0 -49 15 -10 10 -15 22 -12 25 3 4 2 15 -3 24 -15 27 -80 4 -80 -29 0
-5 -5 -13 -11 -17 -12 -7 -29 13 -29 35 0 11 3 11 15 1 12 -10 16 -9 21 4 10
25 -3 46 -29 46 -27 0 -52 23 -42 39 3 6 19 8 35 4 27 -5 30 -3 30 20 0 14 -5
29 -11 32 -5 4 -9 14 -7 23 2 10 -8 27 -22 39 -22 19 -27 20 -41 7 -15 -13
-19 -13 -34 2 -17 17 -16 19 2 34 19 15 19 17 3 48 -10 17 -23 38 -29 46 -13
16 1 32 19 21 6 -3 10 -1 10 5 0 6 3 9 8 7 4 -3 12 1 19 8 8 9 9 15 2 17 -6 2
-13 23 -16 46 -4 29 -10 41 -18 38 -7 -2 -17 0 -23 6 -8 8 -13 7 -18 -5 -8
-21 -24 -22 -24 -2 0 8 6 15 14 15 7 0 20 10 28 22 14 20 17 21 33 8 17 -14
18 -13 11 20 -11 60 -12 84 -3 103 12 26 30 21 23 -7z m-3366 10 c0 -3 -4 -8
-10 -11 -5 -3 -10 -1 -10 4 0 6 5 11 10 11 6 0 10 -2 10 -4z m3770 0 c0 -3 -4
-8 -10 -11 -5 -3 -10 -1 -10 4 0 6 5 11 10 11 6 0 10 -2 10 -4z m1411 -6 c10
0 27 -8 38 -19 10 -10 25 -21 32 -24 10 -4 9 -6 -3 -6 -10 -1 -39 11 -65 25
-53 30 -68 41 -40 31 10 -4 27 -7 38 -7z m-1461 -4 c0 -2 -7 -7 -16 -10 -8 -3
-12 -2 -9 4 6 10 25 14 25 6z m1195 -6 c3 -5 1 -10 -4 -10 -6 0 -11 5 -11 10
0 6 2 10 4 10 3 0 8 -4 11 -10z m-901 -6 c21 -8 21 -34 0 -34 -11 0 -14 5 -10
16 4 12 2 15 -9 10 -8 -3 -15 -1 -15 4 0 11 11 13 34 4z m-3939 -14 c3 -5 1
-10 -4 -10 -6 0 -11 5 -11 10 0 6 2 10 4 10 3 0 8 -4 11 -10z m3042 4 c-3 -3
-12 -4 -19 -1 -8 3 -5 6 6 6 11 1 17 -2 13 -5z m-197 -14 c0 -5 -5 -10 -11
-10 -5 0 -7 5 -4 10 3 6 8 10 11 10 2 0 4 -4 4 -10z m-5280 -8 c0 -13 -12 -22
-22 -16 -10 6 -1 24 13 24 5 0 9 -4 9 -8z m5418 -4 c-6 -18 -28 -21 -28 -4 0
9 7 16 16 16 9 0 14 -5 12 -12z m-78 -2 c0 -9 -32 -36 -42 -36 -6 0 0 9 13 20
25 21 29 23 29 16z m25 -6 c3 -5 1 -10 -4 -10 -6 0 -11 5 -11 10 0 6 2 10 4
10 3 0 8 -4 11 -10z m2060 1 c3 -5 1 -12 -4 -15 -12 -8 -41 3 -41 15 0 12 37
12 45 0z m-5325 -11 c0 -5 -4 -10 -10 -10 -5 0 -10 5 -10 10 0 6 5 10 10 10 6
0 10 -4 10 -10z m4984 -14 c-7 -18 -22 -20 -44 -6 -15 10 -16 9 30 23 20 6 22
3 14 -17z m-6891 -18 c13 -13 28 -38 31 -55 4 -19 14 -33 22 -33 16 0 19 16 4
25 -8 5 -7 11 1 21 17 21 31 17 27 -9 -3 -23 27 -76 39 -67 9 7 47 -99 39
-108 -4 -4 -16 3 -26 16 -21 26 -75 30 -84 7 -10 -27 -42 -16 -67 23 -19 27
-31 36 -48 34 -32 -3 -54 17 -47 44 4 16 1 23 -15 27 -15 4 -20 11 -15 22 3 9
6 27 6 40 0 18 6 25 28 28 61 9 82 6 105 -15z m6687 12 c0 -5 -2 -10 -4 -10
-3 0 -8 5 -11 10 -3 6 -1 10 4 10 6 0 11 -4 11 -10z m296 -48 c-8 -7 -56 30
-50 40 3 5 17 -1 30 -13 13 -12 22 -24 20 -27z m-7246 34 c0 -9 -30 -14 -35
-6 -4 6 3 10 14 10 12 0 21 -2 21 -4z m5479 -17 c-19 -12 -49 -11 -49 0 0 10
40 20 54 13 4 -3 2 -8 -5 -13z m1881 -41 c0 -5 -12 0 -26 11 -15 11 -30 18
-35 15 -17 -10 -31 7 -18 22 9 11 17 9 45 -12 19 -15 34 -31 34 -36z m-2030
32 c0 -5 -4 -10 -10 -10 -5 0 -10 5 -10 10 0 6 5 10 10 10 6 0 10 -4 10 -10z
m1625 0 c4 -6 -1 -7 -12 -3 -16 6 -16 5 -4 -10 12 -16 12 -17 -5 -11 -34 13
-38 17 -18 25 27 11 32 10 39 -1z m95 0 c0 -5 -7 -10 -15 -10 -8 0 -15 5 -15
10 0 6 7 10 15 10 8 0 15 -4 15 -10z m575 0 c3 -5 2 -10 -4 -10 -5 0 -13 5
-16 10 -3 6 -2 10 4 10 5 0 13 -4 16 -10z m-2067 -17 c2 -8 -5 -13 -17 -13
-12 0 -21 6 -21 16 0 18 31 15 38 -3z m99 2 c0 -8 -4 -15 -9 -15 -10 0 -11 14
-1 23 9 10 10 9 10 -8z m749 -7 c-14 -24 -26 -23 -26 1 0 13 6 19 19 18 15 -1
17 -4 7 -19z m1139 12 c3 -5 2 -10 -4 -10 -5 0 -13 5 -16 10 -3 6 -2 10 4 10
5 0 13 -4 16 -10z m-4955 -20 c-9 -17 -30 -28 -30 -16 0 2 -3 11 -6 20 -5 12
0 16 20 16 24 0 25 -2 16 -20z m4038 1 c3 -8 -1 -12 -9 -9 -7 2 -15 10 -17 17
-3 8 1 12 9 9 7 -2 15 -10 17 -17z m992 -1 c8 -5 12 -11 10 -14 -3 -2 -14 2
-24 10 -22 15 -10 19 14 4z m120 -5 c10 -12 9 -16 -5 -21 -19 -8 -40 9 -31 25
10 15 21 14 36 -4z m-1590 -9 c0 -3 -4 -8 -10 -11 -5 -3 -10 -1 -10 4 0 6 5
11 10 11 6 0 10 -2 10 -4z m1024 -2 c23 -9 20 -34 -3 -34 -22 0 -35 15 -26 30
7 12 8 12 29 4z m-5599 -23 c-3 -6 -11 -11 -17 -11 -6 0 -6 6 2 15 14 17 26
13 15 -4z m4774 6 c13 5 13 2 -3 -15 -11 -12 -27 -22 -36 -22 -9 0 -22 -6 -29
-12 -11 -11 -12 -9 -6 11 5 17 4 22 -5 16 -8 -5 -11 -3 -8 6 5 16 49 29 62 18
5 -4 16 -5 25 -2z m1528 -3 c1 -5 -1 -15 -6 -23 -8 -12 -12 -13 -25 -2 -13 11
-14 17 -5 28 13 14 31 13 36 -3z m-2146 -4 c20 -11 25 -35 10 -45 -12 -7 -41
22 -41 41 0 17 5 17 31 4z m1014 1 c7 -12 -31 -24 -47 -15 -8 5 -6 10 8 15 26
10 32 10 39 0z m899 -7 c14 -37 -15 -40 -34 -3 -9 16 -7 19 9 19 10 0 22 -7
25 -16z m-4914 -8 c0 -3 -4 -8 -10 -11 -5 -3 -10 -1 -10 4 0 6 5 11 10 11 6 0
10 -2 10 -4z m2685 -16 c0 -8 -8 -16 -17 -18 -13 -2 -18 3 -18 18 0 15 5 20
18 18 9 -2 17 -10 17 -18z m2545 9 c0 -20 -21 -49 -35 -49 -20 0 -19 19 2 42
18 20 33 24 33 7z m-7490 -9 c0 -5 -2 -10 -4 -10 -3 0 -8 5 -11 10 -3 6 -1 10
4 10 6 0 11 -4 11 -10z m5074 -9 c17 -19 17 -20 -13 -19 -17 1 -31 2 -31 4 0
10 14 34 20 34 4 0 15 -9 24 -19z m-232 -6 c0 -8 1 -21 2 -27 1 -7 -6 -13 -14
-13 -8 0 -15 5 -15 12 0 6 -3 15 -7 19 -14 13 -8 24 12 24 11 0 21 -7 22 -15z
m1883 -5 c-11 -5 -29 -9 -40 -9 l-20 0 20 9 c11 5 29 9 40 9 l20 0 -20 -9z
m562 -16 c25 -19 32 -29 24 -37 -13 -13 -64 21 -69 47 -5 22 6 20 45 -10z
m-99 4 c7 -7 12 -19 12 -27 0 -11 -4 -10 -20 4 -21 19 -26 35 -12 35 4 0 13
-5 20 -12z m-1473 -8 c-3 -5 -10 -10 -16 -10 -5 0 -9 5 -9 10 0 6 7 10 16 10
8 0 12 -4 9 -10z m540 0 c4 -6 4 -18 1 -26 -5 -14 -8 -14 -22 0 -8 9 -20 14
-25 11 -12 -8 -31 4 -24 16 8 12 62 11 70 -1z m205 6 c0 -3 -4 -8 -10 -11 -5
-3 -10 -1 -10 4 0 6 5 11 10 11 6 0 10 -2 10 -4z m-1470 -16 c0 -5 -4 -10 -10
-10 -5 0 -10 5 -10 10 0 6 5 10 10 10 6 0 10 -4 10 -10z m97 -12 c-3 -8 -6 -5
-6 6 -1 11 2 17 5 13 3 -3 4 -12 1 -19z m53 6 c0 -8 -4 -12 -10 -9 -5 3 -10
10 -10 16 0 5 5 9 10 9 6 0 10 -7 10 -16z m1510 -14 c0 -5 -7 -10 -15 -10 -8
0 -15 -4 -15 -10 0 -5 -7 -10 -15 -10 -18 0 -19 6 -2 25 14 16 47 20 47 5z
m-1605 -11 c7 -11 -25 -40 -36 -33 -4 2 -9 13 -12 24 -4 16 0 20 18 20 13 0
27 -5 30 -11z m2041 -17 c-4 -3 -14 2 -24 12 -16 18 -16 18 6 6 13 -6 21 -14
18 -18z m-2216 -2 c0 -11 -7 -20 -15 -20 -8 0 -15 5 -15 10 0 6 5 10 11 10 5
0 7 5 4 10 -3 6 -1 10 4 10 6 0 11 -9 11 -20z m1685 -10 c-3 -5 -14 -6 -26 -3
-15 4 -17 8 -8 13 15 10 41 1 34 -10z m255 10 c0 -5 -4 -10 -10 -10 -5 0 -10
5 -10 10 0 6 5 10 10 10 6 0 10 -4 10 -10z m-6970 -39 c0 -9 9 -27 20 -41 17
-22 17 -27 4 -42 -12 -13 -13 -21 -4 -37 9 -18 7 -27 -11 -52 -21 -30 -58 -36
-50 -8 2 8 4 50 3 94 -1 105 4 131 23 115 8 -7 15 -20 15 -29z m5430 14 c0
-19 -20 -29 -32 -17 -8 8 -7 16 2 26 14 17 30 12 30 -9z m650 5 c0 -5 -5 -10
-11 -10 -5 0 -7 5 -4 10 3 6 8 10 11 10 2 0 4 -4 4 -10z m1240 -16 c0 -8 -4
-12 -10 -9 -5 3 -10 13 -10 21 0 8 5 12 10 9 6 -3 10 -13 10 -21z m-1465 -14
c8 -13 -13 -40 -31 -40 -14 0 -19 31 -7 43 10 10 31 8 38 -3z m-605 -7 c0 -14
-19 -38 -25 -32 -8 8 5 39 16 39 5 0 9 -3 9 -7z m1960 3 c0 -3 -4 -8 -10 -11
-5 -3 -10 -1 -10 4 0 6 5 11 10 11 6 0 10 -2 10 -4z m-1891 -32 c3 -16 1 -17
-13 -5 -19 16 -21 34 -3 29 6 -3 14 -13 16 -24z m1601 1 c7 -8 8 -15 2 -15 -5
0 -15 7 -22 15 -7 8 -8 15 -2 15 5 0 15 -7 22 -15z m375 5 c3 -5 1 -19 -6 -31
-10 -19 -13 -20 -26 -6 -13 13 -13 18 -2 31 16 18 26 20 34 6z m305 -16 c0
-16 -26 -19 -35 -4 -3 6 -4 14 0 20 8 13 35 1 35 -16z m-760 -5 c0 -5 -4 -9
-10 -9 -5 0 -10 7 -10 16 0 8 5 12 10 9 6 -3 10 -10 10 -16z m300 -6 c0 -25
-1 -26 -16 -11 -9 9 -13 21 -10 27 13 20 26 11 26 -16z m-580 7 c0 -5 -2 -10
-4 -10 -3 0 -8 5 -11 10 -3 6 -1 10 4 10 6 0 11 -4 11 -10z m-1850 -10 c0 -5
-2 -10 -4 -10 -3 0 -8 5 -11 10 -3 6 -1 10 4 10 6 0 11 -4 11 -10z m358 -14
c3 -12 -1 -17 -10 -14 -7 3 -15 13 -16 22 -3 12 1 17 10 14 7 -3 15 -13 16
-22z m66 9 c-4 -8 -12 -15 -20 -15 -17 0 -18 17 -1 23 22 9 27 7 21 -8z m968
-7 c-6 -6 -15 -8 -19 -4 -4 4 -1 11 7 16 8 5 17 7 19 4 3 -2 -1 -10 -7 -16z
m-2677 2 c3 -5 1 -10 -4 -10 -6 0 -11 5 -11 10 0 6 2 10 4 10 3 0 8 -4 11 -10z
m3773 -22 c13 -46 1 -59 -14 -17 -16 43 -16 49 -4 49 5 0 13 -15 18 -32z
m-1823 -18 c-9 -27 -39 -23 -43 7 -2 14 3 23 15 25 25 6 36 -6 28 -32z m1195
-1 c0 -5 -6 -9 -14 -9 -15 0 -28 24 -19 34 7 7 33 -13 33 -25z m-1540 11 c0
-5 -2 -10 -4 -10 -3 0 -8 5 -11 10 -3 6 -1 10 4 10 6 0 11 -4 11 -10z m2230
-5 c10 -12 10 -19 2 -27 -13 -13 -42 6 -42 28 0 19 24 18 40 -1z m170 -13 c0
-15 -2 -15 -10 -2 -13 20 -13 33 0 25 6 -3 10 -14 10 -23z m-2010 4 c0 -3 -4
-8 -10 -11 -5 -3 -10 -1 -10 4 0 6 5 11 10 11 6 0 10 -2 10 -4z m-550 -16 c0
-5 -4 -10 -10 -10 -5 0 -10 5 -10 10 0 6 5 10 10 10 6 0 10 -4 10 -10z m2159
-16 c10 -24 10 -25 -11 -20 -13 3 -17 3 -10 0 14 -6 17 -44 3 -44 -27 0 -40
65 -16 82 16 12 21 9 34 -18z m-3164 -4 c-2 -31 -15 -37 -15 -7 0 15 4 27 8
27 5 0 8 -9 7 -20z m2145 10 c0 -5 -11 -10 -24 -10 -14 0 -28 5 -31 10 -4 6 7
10 24 10 17 0 31 -4 31 -10z m380 6 c0 -9 -30 -14 -35 -6 -4 6 3 10 14 10 12
0 21 -2 21 -4z m-1285 -25 c-3 -6 -11 -11 -17 -11 -6 0 -6 6 2 15 14 17 26 13
15 -4z m-3407 -19 c2 -13 11 -26 20 -29 21 -8 52 -34 52 -44 0 -11 -61 21 -66
36 -3 7 -13 11 -23 8 -22 -6 -45 21 -37 43 9 24 50 14 54 -14z m5222 -4 c0 -6
-7 -5 -15 2 -8 7 -15 17 -15 22 0 6 7 5 15 -2 8 -7 15 -17 15 -22z m-2840 12
c0 -5 -5 -10 -11 -10 -5 0 -7 5 -4 10 3 6 8 10 11 10 2 0 4 -4 4 -10z m2330
-5 c14 -16 10 -18 -14 -9 -9 3 -16 10 -16 15 0 14 16 11 30 -6z m105 5 c3 -5
2 -10 -4 -10 -5 0 -13 5 -16 10 -3 6 -2 10 4 10 5 0 13 -4 16 -10z m266 -7
c11 -13 11 -17 1 -20 -18 -7 -4 -23 19 -23 11 0 19 -7 19 -17 0 -14 -8 -18
-33 -18 -34 0 -57 10 -57 26 0 5 7 9 15 9 8 0 15 5 15 10 0 6 -7 13 -15 16
-21 9 -19 34 4 34 10 0 25 -7 32 -17z m369 7 c0 -5 -2 -10 -4 -10 -3 0 -8 5
-11 10 -3 6 -1 10 4 10 6 0 11 -4 11 -10z m-1945 -10 c-3 -5 -19 -10 -36 -10
-16 0 -29 5 -29 10 0 6 16 10 36 10 21 0 33 -4 29 -10z m115 0 c0 -5 -4 -10
-10 -10 -5 0 -10 5 -10 10 0 6 5 10 10 10 6 0 10 -4 10 -10z m1005 0 c3 -5 1
-10 -4 -10 -6 0 -11 5 -11 10 0 6 2 10 4 10 3 0 8 -4 11 -10z m-2288 -16 c2
-6 -4 -15 -14 -18 -10 -4 -19 -2 -21 3 -2 6 -19 11 -38 11 -20 0 -33 3 -30 8
7 12 99 8 103 -4z m893 12 c0 -3 -4 -8 -10 -11 -5 -3 -10 -1 -10 4 0 6 5 11
10 11 6 0 10 -2 10 -4z m537 -8 c-2 -7 0 -21 5 -31 11 -21 1 -57 -16 -57 -13
0 -14 38 -2 58 4 7 1 12 -8 12 -19 0 -21 16 -3 23 21 9 29 7 24 -5z m628 2 c3
-5 1 -10 -4 -10 -6 0 -11 5 -11 10 0 6 2 10 4 10 3 0 8 -4 11 -10z m405 -33
c0 -5 -4 -5 -10 -2 -5 3 -10 14 -10 23 0 15 2 15 10 2 5 -8 10 -19 10 -23z
m-1134 12 c7 -12 -15 -31 -28 -23 -4 3 -8 12 -8 20 0 17 26 19 36 3z m-1226
-41 c0 -22 16 -24 24 -3 7 19 22 19 30 0 8 -21 -14 -55 -35 -55 -18 0 -39 47
-39 84 0 17 2 18 10 6 5 -8 10 -23 10 -32z m-40 -2 c0 -6 -17 -12 -40 -12 -36
-1 -52 11 -35 27 9 10 75 -4 75 -15z m2025 4 c3 -5 1 -10 -4 -10 -6 0 -11 5
-11 10 0 6 2 10 4 10 3 0 8 -4 11 -10z m161 -15 c-1 -28 -11 -33 -20 -9 -9 24
-7 34 8 34 9 0 13 -10 12 -25z m794 15 c0 -5 -2 -10 -4 -10 -3 0 -8 5 -11 10
-3 6 -1 10 4 10 6 0 11 -4 11 -10z m-2420 -10 c0 -5 -4 -10 -10 -10 -5 0 -10
5 -10 10 0 6 5 10 10 10 6 0 10 -4 10 -10z m2906 -10 c8 0 14 -9 14 -20 0 -13
-7 -20 -19 -20 -22 0 -33 22 -24 47 4 11 8 12 11 5 2 -7 10 -12 18 -12z
m-2791 0 c-3 -5 -10 -10 -16 -10 -5 0 -9 5 -9 10 0 6 7 10 16 10 8 0 12 -4 9
-10z m515 -5 c0 -8 -7 -15 -15 -15 -16 0 -20 12 -8 23 11 12 23 8 23 -8z m749
-48 c1 -35 -15 -27 -24 13 -8 36 5 63 16 34 4 -10 8 -32 8 -47z m-1783 38 c8
-21 -6 -41 -17 -24 -12 19 -11 39 1 39 6 0 13 -7 16 -15z m2724 -37 c0 -5 -6
-8 -14 -8 -15 0 -29 38 -19 53 5 9 32 -28 33 -45z m90 16 c0 -8 -4 -12 -10 -9
-5 3 -10 13 -10 21 0 8 5 12 10 9 6 -3 10 -13 10 -21z m284 5 c-6 -11 -24 -2
-24 11 0 5 7 7 15 4 8 -4 12 -10 9 -15z m-2354 1 c0 -5 -5 -10 -11 -10 -5 0
-7 5 -4 10 3 6 8 10 11 10 2 0 4 -4 4 -10z m-265 -11 c10 -15 -1 -23 -20 -15
-9 3 -13 10 -10 16 8 13 22 13 30 -1z m1135 -9 c0 -20 -25 -38 -37 -26 -5 5
24 46 34 46 1 0 3 -9 3 -20z m680 -1 c0 -6 -4 -7 -10 -4 -5 3 -10 11 -10 16 0
6 5 7 10 4 6 -3 10 -11 10 -16z m310 -7 c0 -15 -2 -15 -10 -2 -13 20 -13 33 0
25 6 -3 10 -14 10 -23z m260 7 c0 -6 -4 -7 -10 -4 -5 3 -10 11 -10 16 0 6 5 7
10 4 6 -3 10 -11 10 -16z m-2752 -9 c-7 -10 -14 -18 -15 -16 -6 6 9 36 18 36
5 0 4 -9 -3 -20z m833 -3 c-13 -13 -26 -3 -16 12 3 6 11 8 17 5 6 -4 6 -10 -1
-17z m215 14 c-3 -5 -15 -7 -26 -4 -28 7 -25 13 6 13 14 0 23 -4 20 -9z m961
-37 c-12 -13 -37 6 -37 28 l0 22 22 -21 c12 -13 19 -25 15 -29z m1122 20 c17
-38 6 -42 -14 -5 -8 17 -12 31 -7 31 5 0 14 -12 21 -26z m-3276 -22 c-3 -12
-9 -22 -14 -22 -12 0 -11 7 3 30 15 24 19 21 11 -8z m1317 13 c-14 -17 -40
-20 -40 -6 0 8 18 16 44 20 5 0 3 -6 -4 -14z m-2325 -5 c-3 -5 -11 -10 -16
-10 -6 0 -7 5 -4 10 3 6 11 10 16 10 6 0 7 -4 4 -10z m3401 -17 c16 -22 18
-41 3 -26 -6 6 -18 9 -25 6 -14 -5 -20 18 -7 30 10 10 15 9 29 -10z m654 -28
c0 -18 -1 -18 -16 -3 -10 10 -14 23 -10 34 6 16 8 16 16 4 6 -8 10 -24 10 -35z
m-2753 29 c-3 -3 -12 -4 -19 -1 -8 3 -5 6 6 6 11 1 17 -2 13 -5z m818 -14
c-10 -11 -24 -20 -32 -20 -12 0 -12 2 -1 13 11 12 32 23 47 26 2 1 -4 -8 -14
-19z m2129 11 c10 -15 -6 -43 -20 -37 -10 4 -14 -3 -14 -24 0 -34 -14 -39 -30
-11 -15 30 -12 41 15 51 14 5 25 14 25 20 0 12 17 13 24 1z m-2544 -11 c0 -5
-4 -10 -10 -10 -5 0 -10 5 -10 10 0 6 5 10 10 10 6 0 10 -4 10 -10z m314 1
c13 7 9 1 -9 -14 -31 -26 -53 -22 -41 9 5 13 10 14 18 6 8 -8 17 -8 32 -1z
m1062 -29 c-9 -8 -26 10 -26 26 1 15 2 15 15 -2 8 -11 13 -21 11 -24z m672 26
c19 -19 14 -37 -13 -44 -29 -7 -55 10 -55 37 0 14 7 19 28 19 15 0 33 -5 40
-12z m198 -12 c15 -12 16 -17 7 -27 -10 -10 -15 -9 -28 1 -16 13 -21 40 -7 40
5 0 17 -6 28 -14z m-1536 -6 c0 -5 -4 -10 -9 -10 -6 0 -13 5 -16 10 -3 6 1 10
9 10 9 0 16 -4 16 -10z m425 0 c3 -5 1 -10 -4 -10 -6 0 -11 5 -11 10 0 6 2 10
4 10 3 0 8 -4 11 -10z m485 -6 c0 -8 -4 -12 -10 -9 -5 3 -10 10 -10 16 0 5 5
9 10 9 6 0 10 -7 10 -16z m-5896 -3 c3 -5 -6 -8 -20 -8 -19 0 -22 2 -13 8 18
11 26 11 33 0z m5939 -27 c3 -17 0 -27 -10 -31 -24 -9 -34 10 -21 39 15 31 24
28 31 -8z m-642 11 c-1 -6 -14 -13 -30 -18 -23 -5 -28 -11 -24 -27 6 -24 -24
-29 -33 -5 -4 8 -12 15 -20 15 -24 0 -16 17 14 28 51 20 94 23 93 7z m-811
-14 c0 -20 -17 -37 -27 -28 -7 8 7 47 18 47 5 0 9 -9 9 -19z m1984 -4 c6 -9 7
-19 3 -23 -9 -9 -37 15 -37 33 0 18 20 12 34 -10z m-2320 -2 c3 -8 1 -15 -3
-15 -5 0 -11 7 -15 15 -3 8 -1 15 3 15 5 0 11 -7 15 -15z m66 5 c0 -5 -4 -10
-10 -10 -5 0 -10 5 -10 10 0 6 5 10 10 10 6 0 10 -4 10 -10z m-590 -10 c0 -5
-4 -10 -10 -10 -5 0 -10 5 -10 10 0 6 5 10 10 10 6 0 10 -4 10 -10z m1740 -19
c0 -35 -27 -49 -49 -26 -15 15 -14 18 9 35 34 26 40 25 40 -9z m1059 -3 c0
-27 -2 -29 -8 -13 -5 11 -6 26 -4 33 8 21 13 13 12 -20z m661 6 c0 -27 -14
-25 -30 7 -9 16 -7 19 10 19 15 0 20 -7 20 -26z m-5278 1 c0 -5 -5 -11 -11
-13 -6 -2 -11 4 -11 13 0 9 5 15 11 13 6 -2 11 -8 11 -13z m2808 5 c0 -5 -4
-10 -10 -10 -5 0 -10 5 -10 10 0 6 5 10 10 10 6 0 10 -4 10 -10z m900 0 c0 -5
-4 -10 -10 -10 -5 0 -10 5 -10 10 0 6 5 10 10 10 6 0 10 -4 10 -10z m715 -1
c11 -17 -1 -21 -15 -4 -8 9 -8 15 -2 15 6 0 14 -5 17 -11z m-2235 -20 c0 -6
-4 -7 -10 -4 -5 3 -10 11 -10 16 0 6 5 7 10 4 6 -3 10 -11 10 -16z m1030 12
c0 -6 -4 -13 -10 -16 -5 -3 -10 1 -10 9 0 9 5 16 10 16 6 0 10 -4 10 -9z
m1020 -42 c0 -16 -19 -9 -30 10 -17 33 -11 48 10 22 11 -13 20 -27 20 -32z
m-2565 31 c3 -5 2 -10 -4 -10 -5 0 -13 5 -16 10 -3 6 -2 10 4 10 5 0 13 -4 16
-10z m2585 -5 c0 -8 -4 -15 -10 -15 -5 0 -10 7 -10 15 0 8 5 15 10 15 6 0 10
-7 10 -15z m-3495 -29 c17 -4 40 -14 52 -24 23 -18 40 -77 25 -86 -12 -7 -104
39 -126 63 -10 10 -19 33 -21 50 -4 30 -3 30 18 17 12 -8 36 -17 52 -20z
m3775 8 c0 -8 -7 -14 -15 -14 -15 0 -21 21 -9 33 10 9 24 -2 24 -19z m270 16
c0 -5 -4 -10 -10 -10 -5 0 -10 5 -10 10 0 6 5 10 10 10 6 0 10 -4 10 -10z
m-2840 -4 c0 -2 -8 -10 -17 -17 -16 -13 -17 -12 -4 4 13 16 21 21 21 13z m370
0 c0 -3 -4 -8 -10 -11 -5 -3 -10 -1 -10 4 0 6 5 11 10 11 6 0 10 -2 10 -4z
m-172 -24 c6 -18 -15 -14 -22 4 -4 10 -1 14 6 12 6 -2 14 -10 16 -16z m504 11
c-7 -3 -18 -16 -23 -30 -9 -25 -29 -27 -37 -4 -2 7 5 15 17 18 12 3 21 9 21
14 0 5 8 9 18 8 11 0 12 -2 4 -6z m823 -3 c-4 -6 -2 -17 4 -24 8 -9 5 -19 -13
-35 -25 -23 -46 -21 -46 3 0 8 7 19 15 26 21 17 12 24 -14 10 -12 -6 -21 -8
-21 -6 0 8 53 35 68 36 7 0 10 -5 7 -10z m116 -16 c5 -15 7 -29 5 -32 -10 -9
-36 20 -36 39 0 28 19 23 31 -7z m739 -14 c-19 -12 -33 2 -24 24 6 16 8 16 23
1 14 -14 14 -17 1 -25z m-2140 21 c0 -5 -7 -11 -15 -15 -15 -5 -20 5 -8 17 9
10 23 9 23 -2z m577 -7 c8 -20 -13 -42 -27 -28 -12 12 -3 44 11 44 5 0 12 -7
16 -16z m2018 7 c3 -5 1 -12 -5 -16 -5 -3 -10 1 -10 9 0 18 6 21 15 7z m-365
-30 c0 -10 -6 -21 -14 -24 -15 -6 -29 -47 -16 -47 5 0 21 -5 37 -11 26 -10 27
-12 8 -19 -42 -17 -63 -12 -67 18 -2 21 -9 28 -31 30 -16 2 -34 -2 -42 -8 -10
-8 -19 -8 -37 1 -13 7 -29 15 -37 19 -8 3 -17 13 -19 21 -3 8 -1 11 3 7 4 -4
20 0 35 9 27 16 60 13 60 -6 0 -5 -10 -12 -22 -14 -13 -2 -4 -5 19 -6 47 -1
75 7 67 20 -9 15 6 29 32 29 17 0 24 -6 24 -19z m-6232 -37 c-4 -3 -12 5 -18
18 -12 22 -12 22 6 6 10 -10 15 -20 12 -24z m4802 21 c0 -8 -4 -15 -10 -15 -5
0 -10 7 -10 15 0 8 5 15 10 15 6 0 10 -7 10 -15z m226 -21 c-5 -13 -10 -14
-18 -6 -6 6 -8 18 -4 28 5 13 10 14 18 6 6 -6 8 -18 4 -28z m-841 15 c11 -17
-1 -21 -15 -4 -8 9 -8 15 -2 15 6 0 14 -5 17 -11z m1132 -9 c-3 -13 0 -20 8
-20 19 0 29 -20 17 -32 -8 -8 -20 -7 -41 2 -31 13 -43 40 -17 40 8 0 16 7 20
15 8 22 19 18 13 -5z m254 -1 c8 -15 8 -24 0 -32 -15 -15 -46 16 -38 37 9 22
24 20 38 -5z m196 -14 c2 -26 1 -26 -12 -9 -18 24 -19 47 -3 42 7 -3 14 -17
15 -33z m953 20 c0 -8 -4 -15 -10 -15 -5 0 -10 7 -10 15 0 8 5 15 10 15 6 0
10 -7 10 -15z m-4270 -16 c62 -14 83 -35 75 -76 -6 -34 9 -45 32 -22 16 16 50
-5 73 -44 34 -56 20 -173 -24 -202 -12 -8 -37 -37 -54 -63 -43 -67 -112 -143
-123 -136 -5 3 -9 14 -9 25 0 11 -6 22 -14 25 -8 3 -26 23 -40 45 -29 43 -49
48 -118 27 -57 -17 -63 -6 -43 88 10 44 20 120 22 171 6 102 12 112 88 152 44
23 69 25 135 10z m1098 -14 c-3 -3 -9 2 -12 12 -6 14 -5 15 5 6 7 -7 10 -15 7
-18z m1066 4 c-6 -11 -24 -2 -24 11 0 5 7 7 15 4 8 -4 12 -10 9 -15z m150 11
c17 -6 24 -14 20 -25 -8 -21 -31 -19 -44 4 -18 34 -15 36 24 21z m1196 0 c-8
-5 -25 -10 -37 -10 -14 0 -23 -6 -23 -15 0 -17 -16 -20 -25 -5 -3 6 -21 10
-38 11 -30 1 -29 1 13 13 56 16 132 20 110 6z m-5894 -70 c8 0 13 -4 12 -8 -4
-14 93 -102 111 -102 9 0 27 -7 39 -16 37 -26 147 -44 292 -49 74 -3 169 -9
210 -15 41 -5 134 -17 205 -25 143 -17 232 -31 314 -51 42 -10 67 -10 105 -2
120 26 560 -25 721 -84 75 -27 89 -37 75 -53 -16 -19 -38 -114 -33 -136 5 -18
1 -19 -52 -13 -37 5 -56 4 -52 -3 10 -16 -77 -10 -90 7 -11 13 -14 13 -23 0
-9 -13 -11 -13 -20 1 -6 10 -23 15 -50 15 -22 -1 -40 3 -40 7 0 5 -4 6 -9 3
-11 -7 -78 20 -83 34 -1 5 -45 12 -96 16 -83 6 -92 5 -86 -10 3 -9 1 -16 -4
-16 -6 0 -14 9 -17 21 -4 11 -9 18 -13 15 -3 -3 -16 1 -30 10 -13 9 -22 11
-18 6 3 -6 2 -13 -3 -17 -5 -3 -14 3 -20 12 -6 10 -11 14 -11 8 0 -5 -4 -5 -8
2 -4 6 -14 13 -22 15 -8 2 -33 20 -55 40 -44 42 -71 48 -80 18 -8 -25 11 -96
38 -140 l21 -34 -25 19 c-14 11 -32 39 -39 62 -15 53 -35 69 -28 24 5 -33 -1
-38 -20 -19 -9 9 -12 8 -12 -4 0 -21 -20 -28 -43 -16 -17 9 -17 8 -1 -24 19
-37 163 -188 180 -188 6 0 19 -9 29 -20 10 -11 26 -20 36 -20 19 0 49 -25 49
-42 0 -6 -9 -3 -21 8 -13 12 -34 18 -62 17 -34 0 -37 1 -17 7 19 6 11 8 -31 9
-36 1 -61 6 -69 15 -6 8 -18 12 -26 9 -7 -3 -16 2 -20 10 -3 9 -19 20 -35 26
-16 6 -29 17 -29 27 0 10 -5 14 -15 10 -16 -6 -41 15 -61 50 -16 27 -56 47
-66 31 -5 -7 -10 0 -14 20 -3 17 -13 34 -22 38 -13 5 -13 3 -1 -12 13 -17 13
-17 -13 0 -15 9 -29 13 -33 7 -3 -5 -13 -7 -23 -4 -14 5 -15 4 -2 -5 12 -8 12
-13 2 -23 -10 -10 -14 -10 -21 0 -6 11 -13 11 -36 0 -22 -10 -29 -10 -33 0 -2
6 -9 12 -15 12 -8 0 -7 -4 1 -12 14 -14 16 -28 4 -28 -5 0 -15 11 -22 25 -7
13 -17 22 -22 19 -4 -3 -6 -10 -3 -15 4 -5 -1 -9 -10 -9 -9 0 -19 9 -22 19 -5
21 -29 35 -44 25 -5 -3 -7 -10 -4 -15 4 -5 2 -9 -3 -9 -6 0 -13 -12 -16 -26
-5 -20 -10 -24 -19 -15 -8 8 -8 14 1 23 7 7 12 17 12 23 0 5 -6 1 -12 -9 -10
-18 -11 -18 -24 -2 -14 19 -34 14 -34 -10 0 -8 -5 -14 -11 -14 -5 0 -7 5 -4
10 3 6 3 15 -1 21 -4 8 -9 7 -15 -2 -7 -11 -9 -11 -9 -1 0 9 -7 11 -19 7 -14
-4 -20 0 -23 12 -3 16 -4 16 -10 2 -12 -30 31 -95 132 -197 73 -75 100 -108
100 -127 0 -14 -3 -25 -6 -25 -3 0 -26 16 -50 36 -39 32 -49 36 -83 30 -21 -3
-67 -20 -101 -37 -75 -37 -140 -61 -140 -51 0 4 9 13 20 20 11 7 20 17 20 23
0 7 9 20 21 30 16 14 19 25 14 48 -4 17 -11 31 -15 31 -5 0 -7 -7 -4 -15 4 -9
0 -15 -10 -15 -9 0 -16 5 -16 10 0 6 -7 10 -16 10 -9 0 -14 6 -11 13 2 6 0 23
-5 37 -12 31 -2 70 18 70 8 0 25 -5 37 -12 12 -6 33 -13 46 -14 13 -2 34 -13
47 -25 13 -12 26 -20 30 -17 7 8 -56 94 -101 137 -34 33 -101 138 -93 146 2 3
30 -22 61 -55 71 -73 83 -81 59 -38 -10 18 -27 58 -37 88 -10 30 -24 68 -32
83 -13 27 -16 28 -32 13 -16 -15 -19 -15 -31 -1 -7 8 -19 15 -28 15 -19 0 -52
-38 -52 -61 0 -28 -18 -32 -48 -10 -43 30 -74 34 -142 17 -79 -20 -121 -20
-164 1 -36 17 -52 49 -41 83 3 11 1 30 -6 42 -11 20 -10 21 3 10 13 -10 22 -7
58 23 29 24 52 35 69 34 38 -3 88 11 104 30 15 17 15 17 -19 140 l-7 25 28
-22 c15 -12 34 -22 41 -22z m3584 25 c0 -8 -7 -15 -15 -15 -8 0 -15 7 -15 15
0 8 7 15 15 15 8 0 15 -7 15 -15z m940 5 c0 -5 -7 -10 -16 -10 -8 0 -12 5 -9
10 3 6 10 10 16 10 5 0 9 -4 9 -10z m-595 -10 c-3 -5 -12 -10 -18 -10 -7 0 -6
4 3 10 19 12 23 12 15 0z m-920 -49 l3 -30 -18 22 c-12 14 -14 24 -8 28 6 4 7
13 3 20 -6 11 -5 11 5 2 7 -6 14 -25 15 -42z m615 28 c0 -6 -4 -7 -10 -4 -5 3
-10 11 -10 16 0 6 5 7 10 4 6 -3 10 -11 10 -16z m1995 11 c-3 -5 -11 -10 -16
-10 -6 0 -7 5 -4 10 3 6 11 10 16 10 6 0 7 -4 4 -10z m82 -1 c6 -6 9 -18 6
-25 -7 -18 -43 0 -43 21 0 18 21 20 37 4z m262 -7 c11 -21 -2 -48 -18 -38 -14
9 -15 56 -1 56 5 0 14 -8 19 -18z m-2719 -42 c-14 -26 -27 -25 -36 2 -9 28 25
57 38 33 5 -8 4 -23 -2 -35z m650 45 c0 -5 -68 -35 -81 -35 -5 0 -6 7 -3 15 4
9 14 13 23 11 9 -3 23 -1 31 4 16 11 30 13 30 5z m650 -5 c0 -5 -4 -10 -10
-10 -5 0 -10 5 -10 10 0 6 5 10 10 10 6 0 10 -4 10 -10z m699 1 c19 -12 5 -31
-22 -31 -12 1 -38 -2 -57 -5 -19 -3 -54 -8 -77 -11 -27 -3 -43 -10 -43 -19 0
-19 -38 -7 -51 16 -11 21 -6 23 19 10 12 -6 39 -4 77 6 33 8 72 17 88 20 15 3
27 9 27 14 0 11 21 11 39 0z m651 -7 c0 -17 -22 -14 -28 4 -2 7 3 12 12 12 9
0 16 -7 16 -16z m384 -12 c-1 -7 -2 -21 -2 -32 -1 -12 -9 -20 -21 -20 -10 0
-21 9 -24 20 -4 15 0 20 15 20 14 0 18 5 14 16 -4 10 -1 14 6 12 7 -3 13 -10
12 -16z m-1532 -14 c-7 -7 -12 -8 -12 -2 0 14 12 26 19 19 2 -3 -1 -11 -7 -17z
m218 14 c0 -13 -12 -22 -22 -16 -10 6 -1 24 13 24 5 0 9 -4 9 -8z m341 -5 c-1
-12 -15 -9 -19 4 -3 6 1 10 8 8 6 -3 11 -8 11 -12z m127 -17 c2 -14 6 -32 9
-40 3 -8 7 -35 10 -59 4 -43 3 -44 -15 -28 -10 9 -24 17 -30 17 -14 0 -52 36
-52 49 0 5 15 15 34 22 32 12 33 12 15 30 -26 26 -24 41 4 37 15 -2 23 -11 25
-28z m-2583 10 c3 -5 2 -10 -4 -10 -5 0 -13 5 -16 10 -3 6 -2 10 4 10 5 0 13
-4 16 -10z m910 -16 c-40 -21 -55 -17 -20 5 17 10 34 16 38 14 5 -3 -4 -11
-18 -19z m585 16 c0 -5 -4 -10 -10 -10 -5 0 -10 5 -10 10 0 6 5 10 10 10 6 0
10 -4 10 -10z m1014 -23 c-3 -9 -12 -17 -19 -17 -7 0 -15 -6 -17 -12 -3 -9
-12 -7 -33 6 l-28 19 37 12 c21 7 40 16 44 19 10 11 23 -10 16 -27z m166 -4
c0 -20 -24 -11 -28 10 -2 12 1 15 12 11 9 -3 16 -13 16 -21z m395 -2 c-9 -16
-25 -3 -18 15 4 10 9 12 15 6 6 -6 7 -15 3 -21z m-175 -22 c0 -11 -4 -17 -10
-14 -5 3 -10 15 -10 26 0 11 5 17 10 14 6 -3 10 -15 10 -26z m205 21 c3 -5 1
-10 -4 -10 -6 0 -11 5 -11 10 0 6 2 10 4 10 3 0 8 -4 11 -10z m90 -10 c3 -5 1
-10 -4 -10 -6 0 -11 5 -11 10 0 6 2 10 4 10 3 0 8 -4 11 -10z m-1484 -20 c-25
-21 -46 -27 -36 -9 6 9 41 27 55 28 3 0 -6 -9 -19 -19z m249 10 c0 -5 -4 -10
-10 -10 -5 0 -10 5 -10 10 0 6 5 10 10 10 6 0 10 -4 10 -10z m885 -10 c0 -23
-59 -20 -63 3 -3 15 2 18 30 15 21 -2 33 -8 33 -18z m-2422 -12 c-24 -23 -40
-20 -30 7 4 8 17 15 29 15 l22 0 -21 -22z m1343 -5 c-10 -10 -19 5 -10 18 6
11 8 11 12 0 2 -7 1 -15 -2 -18z m316 -11 c7 2 13 -4 13 -12 0 -10 -10 -15
-30 -16 -16 0 -43 -4 -60 -8 l-30 -8 23 17 c12 9 20 21 16 26 -3 5 0 17 7 25
12 14 15 14 30 -5 10 -12 24 -20 31 -19z m1402 22 c8 -20 -1 -34 -20 -34 -8 0
-14 8 -14 18 0 33 23 44 34 16z m-2024 -8 c0 -8 -4 -17 -9 -21 -12 -7 -24 12
-16 25 9 15 25 12 25 -4z m747 8 c-3 -3 -12 -4 -19 -1 -8 3 -5 6 6 6 11 1 17
-2 13 -5z m780 -11 c2 -6 -8 -22 -22 -36 -25 -23 -26 -25 -9 -41 13 -14 14
-20 5 -26 -23 -14 -50 1 -56 31 -4 16 -11 31 -16 34 -16 11 -10 25 11 25 11 0
23 -7 27 -16 4 -12 9 -8 21 16 14 30 32 35 39 13z m143 1 c0 -8 -4 -12 -10 -9
-5 3 -10 10 -10 16 0 5 5 9 10 9 6 0 10 -7 10 -16z m40 -5 c0 -6 -4 -7 -10 -4
-5 3 -10 11 -10 16 0 6 5 7 10 4 6 -3 10 -11 10 -16z m-1400 -19 c-8 -5 -25
-10 -37 -10 -12 0 -25 -4 -28 -10 -8 -12 -35 -13 -35 -1 0 8 66 27 100 30 13
1 13 0 0 -9z m665 0 c3 -5 16 -10 27 -10 12 0 18 -3 14 -7 -14 -14 -148 -12
-162 2 -12 12 -8 14 23 18 74 7 92 7 98 -3z m1003 -2 c15 -15 -13 -37 -47 -38
-23 0 -23 -1 -7 -19 27 -30 9 -47 -20 -20 -29 27 -30 39 -4 67 23 24 59 29 78
10z m-188 -13 c0 -8 -4 -15 -10 -15 -5 0 -10 7 -10 15 0 8 5 15 10 15 6 0 10
-7 10 -15z m-4346 -37 c19 -38 5 -63 -15 -27 -6 13 -18 28 -25 32 -20 12 -17
27 5 27 12 0 26 -13 35 -32z m2156 22 c0 -5 -4 -10 -10 -10 -5 0 -10 5 -10 10
0 6 5 10 10 10 6 0 10 -4 10 -10z m2126 -33 c10 -31 -11 -42 -40 -21 -24 18
-33 43 -20 57 10 10 53 -15 60 -36z m-2369 27 c-3 -4 3 -14 15 -23 18 -15 19
-20 7 -40 -12 -18 -20 -21 -49 -16 -43 8 -50 12 -50 30 0 7 -12 15 -27 17 -25
3 -22 6 22 20 51 17 93 23 82 12z m813 -6 c0 -6 -3 -8 -7 -5 -3 4 -15 0 -25
-9 -14 -14 -20 -14 -33 -4 -8 7 -12 16 -9 21 8 13 74 11 74 -3z m767 -4 c-3
-3 -12 -4 -19 -1 -8 3 -5 6 6 6 11 1 17 -2 13 -5z m118 -14 c17 -11 47 -20 70
-20 30 0 36 -3 25 -10 -22 -14 -113 -12 -135 4 -11 8 -16 19 -12 30 8 21 15
20 52 -4z m-1475 0 c0 -5 -2 -10 -4 -10 -3 0 -8 5 -11 10 -3 6 -1 10 4 10 6 0
11 -4 11 -10z m480 0 c0 -5 -7 -10 -15 -10 -8 0 -15 5 -15 10 0 6 7 10 15 10
8 0 15 -4 15 -10z m826 -5 c-21 -16 -32 -13 -21 4 3 6 14 11 23 11 15 -1 15
-2 -2 -15z m964 0 c0 -8 -7 -15 -15 -15 -8 0 -15 7 -15 15 0 8 7 15 15 15 8 0
15 -7 15 -15z m-3426 -11 c4 -9 4 -19 2 -21 -8 -8 -26 8 -26 23 0 19 16 18 24
-2z m2826 0 c0 -8 -4 -12 -10 -9 -5 3 -10 10 -10 16 0 5 5 9 10 9 6 0 10 -7
10 -16z m1414 -18 c20 -43 20 -52 0 -35 -9 7 -28 13 -42 14 -22 0 -28 5 -30
28 -3 24 0 27 26 27 24 0 33 -7 46 -34z m-3899 6 c-3 -3 -11 0 -18 7 -9 10 -8
11 6 5 10 -3 15 -9 12 -12z m53 0 c6 -18 -15 -14 -22 4 -4 10 -1 14 6 12 6 -2
14 -10 16 -16z m1362 8 c0 -5 -4 -10 -9 -10 -6 0 -13 5 -16 10 -3 6 1 10 9 10
9 0 16 -4 16 -10z m2120 -6 c0 -8 -5 -12 -10 -9 -6 4 -8 11 -5 16 9 14 15 11
15 -7z m-1730 -14 c0 -5 -7 -10 -15 -10 -8 0 -15 5 -15 10 0 6 7 10 15 10 8 0
15 -4 15 -10z m309 -14 c8 -10 8 -16 -2 -24 -17 -14 -42 2 -34 22 8 20 21 20
36 2z m82 1 c-1 -12 -15 -9 -19 4 -3 6 1 10 8 8 6 -3 11 -8 11 -12z m70 -2 c1
-17 -18 -17 -25 0 -4 11 -1 15 10 13 8 -2 15 -7 15 -13z m239 -6 c0 -6 -4 -7
-10 -4 -5 3 -10 11 -10 16 0 6 5 7 10 4 6 -3 10 -11 10 -16z m894 -11 c-3 -4
0 -8 5 -8 6 0 11 -7 11 -15 0 -8 9 -15 20 -15 21 0 28 -24 10 -35 -14 -8 -68
22 -80 45 -13 25 -8 36 19 36 11 0 17 -4 15 -8z m-1545 -49 c0 -42 -2 -50 -16
-47 -26 5 -41 37 -23 48 8 5 16 14 16 20 1 5 2 15 3 20 0 6 5 10 10 10 4 0 9
-23 10 -51z m1106 41 c3 -5 1 -10 -4 -10 -6 0 -11 5 -11 10 0 6 2 10 4 10 3 0
8 -4 11 -10z m-965 -20 c0 -24 -6 -25 -26 -6 -11 11 -11 16 -1 19 22 10 27 7
27 -13z m700 10 c5 0 16 -8 26 -17 9 -10 22 -18 28 -19 32 -3 36 -5 36 -14 0
-5 -22 -10 -50 -10 -37 0 -55 5 -70 20 -11 11 -20 24 -20 28 0 15 13 23 28 17
7 -3 17 -5 22 -5z m934 -5 c3 -9 -1 -18 -10 -22 -19 -7 -28 2 -21 22 8 19 23
19 31 0z m-1949 -5 c-3 -5 -16 -10 -28 -9 -21 0 -21 1 -2 9 28 12 37 12 30 0z
m-1790 -18 c-3 -3 -11 0 -18 7 -9 10 -8 11 6 5 10 -3 15 -9 12 -12z m769 2 c3
-8 2 -12 -4 -9 -6 3 -10 10 -10 16 0 14 7 11 14 -7z m479 -2 c-1 -5 7 -8 17
-5 14 4 20 0 20 -12 0 -10 -5 -15 -14 -12 -7 3 -19 0 -26 -6 -10 -9 -14 -9
-17 1 -6 14 -63 17 -63 2 0 -12 -57 -13 -64 -1 -6 9 39 21 79 21 12 0 28 7 35
15 14 17 36 14 33 -3z m644 12 c-3 -3 -12 -4 -19 -1 -8 3 -5 6 6 6 11 1 17 -2
13 -5z m1540 -16 c-3 -8 -6 -5 -6 6 -1 11 2 17 5 13 3 -3 4 -12 1 -19z m613 2
c0 -11 -7 -20 -15 -20 -8 0 -15 9 -15 20 0 11 7 20 15 20 8 0 15 -9 15 -20z
m-3540 0 c0 -5 -4 -10 -10 -10 -5 0 -10 5 -10 10 0 6 5 10 10 10 6 0 10 -4 10
-10z m2138 -7 c-5 -25 -28 -28 -28 -4 0 12 6 21 16 21 9 0 14 -7 12 -17z
m-2368 -2 c0 -13 -26 -32 -33 -24 -14 13 -6 33 13 33 11 0 20 -4 20 -9z m1194
1 c2 -4 1 -14 -4 -22 -7 -11 -11 -11 -24 -1 -9 8 -16 17 -16 22 0 11 37 12 44
1z m565 -6 c9 -11 9 -15 -1 -19 -18 -6 -50 12 -43 24 9 13 31 11 44 -5z m295
-34 c-6 -22 -34 -32 -34 -12 0 6 6 10 13 10 8 0 7 4 -3 10 -13 9 -13 11 0 20
20 12 31 0 24 -28z m796 18 c27 -27 25 -37 -10 -45 -37 -8 -50 0 -50 29 0 41
27 49 60 16z m50 6 c0 -8 -4 -18 -10 -21 -5 -3 -10 3 -10 14 0 12 5 21 10 21
6 0 10 -6 10 -14z m-765 -25 c-7 -23 -25 -29 -25 -8 0 14 21 39 28 33 2 -3 1
-14 -3 -25z m-635 7 c0 -4 9 -8 20 -8 11 0 20 5 20 10 0 6 17 9 38 9 24 -1 29
-3 14 -6 -13 -3 -25 -10 -28 -18 -4 -9 -15 -10 -46 -3 -55 12 -83 28 -45 26
15 -1 27 -6 27 -10z m410 2 c0 -5 -7 -10 -15 -10 -8 0 -15 5 -15 10 0 6 7 10
15 10 8 0 15 -4 15 -10z m1100 -15 c0 -9 -9 -15 -25 -15 -16 0 -25 6 -25 15 0
9 9 15 25 15 16 0 25 -6 25 -15z m-2300 -5 c-20 -13 -33 -13 -25 0 3 6 14 10
23 10 15 0 15 -2 2 -10z m760 -14 c0 -3 -4 -8 -10 -11 -5 -3 -10 -1 -10 4 0 6
5 11 10 11 6 0 10 -2 10 -4z m465 -5 c3 -5 18 -6 33 -2 15 4 37 5 50 3 43 -7
5 -32 -49 -32 -47 0 -48 -1 -46 -30 1 -16 5 -30 10 -30 13 0 7 -41 -8 -46 -8
-3 -17 -14 -20 -25 -4 -10 -13 -19 -22 -19 -12 0 -14 7 -8 38 4 20 12 43 18
50 8 11 4 13 -19 10 -27 -3 -29 -1 -27 28 3 30 1 31 -32 30 -52 -2 -42 18 12
25 78 10 101 10 108 0z m1475 -1 c0 -5 -4 -10 -10 -10 -5 0 -10 5 -10 10 0 6
5 10 10 10 6 0 10 -4 10 -10z m-2250 -4 c0 -3 -4 -8 -10 -11 -5 -3 -10 -1 -10
4 0 6 5 11 10 11 6 0 10 -2 10 -4z m2218 -24 c4 -26 -6 -28 -24 -4 -18 24 -17
34 4 30 9 -2 18 -13 20 -26z m-6477 -9 c6 -16 9 -37 6 -49 -2 -11 2 -26 10
-32 7 -7 13 -22 13 -33 0 -12 11 -30 25 -41 33 -26 32 -32 -10 -48 -19 -7 -32
-17 -30 -21 8 -12 -7 -39 -18 -32 -6 4 -7 1 -3 -6 9 -14 -12 -71 -25 -71 -14
0 -28 45 -22 69 3 12 12 20 21 19 11 -2 16 7 18 38 1 23 6 50 12 60 12 23 5
44 -14 44 -16 0 -19 36 -3 46 8 4 8 9 0 17 -14 14 -14 67 -1 67 6 0 15 -12 21
-27z m5597 -1 c2 -7 -3 -12 -12 -12 -9 0 -16 7 -16 16 0 17 22 14 28 -4z
m-898 1 c0 -5 -9 -19 -20 -33 -16 -20 -20 -22 -20 -7 0 9 4 17 10 17 5 0 7 7
4 15 -4 9 0 15 10 15 9 0 16 -3 16 -7z m-2622 -22 c3 -8 -1 -12 -9 -9 -7 2
-15 10 -17 17 -3 8 1 12 9 9 7 -2 15 -10 17 -17z m712 -1 c6 -11 8 -20 6 -20
-3 0 -10 9 -16 20 -6 11 -8 20 -6 20 3 0 10 -9 16 -20z m3426 -17 c-5 -12 -10
-13 -18 -5 -8 8 -8 15 3 28 15 18 25 4 15 -23z m-480 -18 c-3 -8 -13 -11 -25
-8 -12 3 -18 9 -15 14 3 5 9 7 14 4 4 -3 11 5 15 18 6 19 8 20 12 4 3 -10 2
-24 -1 -32z m894 19 c0 -8 -4 -12 -10 -9 -5 3 -10 13 -10 21 0 8 5 12 10 9 6
-3 10 -13 10 -21z m-1713 10 c-3 -3 -12 -4 -19 -1 -8 3 -5 6 6 6 11 1 17 -2
13 -5z m473 -4 c0 -5 -4 -10 -10 -10 -5 0 -10 5 -10 10 0 6 5 10 10 10 6 0 10
-4 10 -10z m1447 -16 c-9 -9 -28 6 -21 18 4 6 10 6 17 -1 6 -6 8 -13 4 -17z
m-3703 1 c-4 -8 -8 -15 -10 -15 -2 0 -4 7 -4 15 0 8 4 15 10 15 5 0 7 -7 4
-15z m409 8 c-7 -2 -19 -2 -25 0 -7 3 -2 5 12 5 14 0 19 -2 13 -5z m844 1 c-3
-3 -12 -4 -19 -1 -8 3 -5 6 6 6 11 1 17 -2 13 -5z m1803 -24 c0 -17 -34 -50
-52 -50 -15 0 -8 29 14 53 25 28 38 26 38 -3z m326 -15 c1 -17 7 -41 13 -54 9
-16 10 -26 2 -34 -7 -7 -15 -1 -26 24 -8 19 -20 41 -27 50 -15 21 -3 51 19 47
12 -2 18 -13 19 -33z m-4091 -36 c135 -67 255 -153 278 -202 18 -35 18 -39 3
-62 -9 -14 -31 -32 -49 -41 -30 -16 -31 -16 -18 0 8 9 11 19 8 23 -8 7 -100
25 -139 27 -14 0 -24 4 -21 9 4 6 -29 12 -51 8 -4 -1 -14 3 -22 10 -8 6 -23 9
-34 6 -10 -3 -24 1 -31 9 -6 8 -25 14 -41 14 -16 0 -27 4 -24 9 3 5 -5 12 -19
15 -14 4 -25 11 -25 16 0 5 -8 6 -17 3 -12 -5 -15 -2 -11 8 7 18 -29 54 -71
72 l-30 13 40 34 c22 19 55 48 72 63 41 37 68 32 202 -34z m605 41 c0 -11 -7
-20 -15 -20 -17 0 -18 2 -9 24 9 23 24 20 24 -4z m2814 -23 c6 -24 4 -26 -11
-18 -10 5 -27 12 -38 16 -19 6 -19 7 4 26 27 22 35 17 45 -24z m740 35 c8 -13
-11 -35 -23 -28 -16 10 -14 36 3 36 8 0 17 -4 20 -8z m-717 -24 c-3 -8 -6 -5
-6 6 -1 11 2 17 5 13 3 -3 4 -12 1 -19z m-5402 2 c3 -5 1 -10 -4 -10 -6 0 -11
5 -11 10 0 6 2 10 4 10 3 0 8 -4 11 -10z m3495 1 c0 -10 -69 -25 -77 -17 -6 6
7 11 42 19 33 8 35 7 35 -2z m420 -1 c0 -5 -9 -10 -19 -10 -11 0 -23 5 -26 10
-4 6 5 10 19 10 14 0 26 -4 26 -10z m810 0 c0 -5 -4 -10 -10 -10 -5 0 -10 5
-10 10 0 6 5 10 10 10 6 0 10 -4 10 -10z m300 0 c-20 -13 -33 -13 -25 0 3 6
14 10 23 10 15 0 15 -2 2 -10z m-4786 -21 c-6 -11 -24 -2 -24 11 0 5 7 7 15 4
8 -4 12 -10 9 -15z m4082 7 c10 -8 16 -18 12 -21 -12 -12 -58 4 -58 20 0 19
20 19 46 1z m-4410 -23 c-7 -7 -26 7 -26 19 0 6 6 6 15 -2 9 -7 13 -15 11 -17z
m3657 20 c-7 -2 -19 -2 -25 0 -7 3 -2 5 12 5 14 0 19 -2 13 -5z m663 -32 c-9
-14 -43 -14 -52 1 -4 6 1 17 12 25 15 11 20 11 32 -1 8 -8 11 -19 8 -25z
m-3492 23 c24 -9 19 -34 -7 -34 -23 0 -47 17 -47 32 0 9 32 11 54 2z m4416 -9
c7 -9 10 -19 6 -22 -8 -9 -38 9 -44 25 -5 17 23 15 38 -3z m-1370 -5 c0 -5 -6
-10 -14 -10 -8 0 -18 5 -21 10 -3 6 3 10 14 10 12 0 21 -4 21 -10z m810 1 c0
-12 -20 -25 -27 -18 -7 7 6 27 18 27 5 0 9 -4 9 -9z m874 -18 c10 -25 -4 -30
-20 -9 -8 11 -14 23 -14 28 0 13 28 -3 34 -19z m414 8 c3 -8 -1 -12 -9 -9 -7
2 -15 10 -17 17 -3 8 1 12 9 9 7 -2 15 -10 17 -17z m-5848 -12 c0 -6 -4 -7
-10 -4 -5 3 -10 11 -10 16 0 6 5 7 10 4 6 -3 10 -11 10 -16z m5032 11 c6 0 6
-6 -2 -15 -15 -19 -50 -20 -50 -2 0 19 12 29 28 22 7 -3 18 -5 24 -5z m893 -1
c12 -19 -5 -23 -22 -6 -16 16 -16 17 -1 17 9 0 20 -5 23 -11z m187 -24 c4 -17
1 -25 -9 -25 -17 0 -27 25 -19 46 8 21 22 10 28 -21z m-6257 15 c3 -5 1 -10
-4 -10 -6 0 -11 5 -11 10 0 6 2 10 4 10 3 0 8 -4 11 -10z m5329 4 c23 -9 20
-34 -3 -34 -22 0 -35 15 -26 30 7 12 8 12 29 4z m-4974 -8 c0 -2 -7 -7 -16
-10 -8 -3 -12 -2 -9 4 6 10 25 14 25 6z m-330 -26 c0 -5 -4 -10 -10 -10 -5 0
-10 5 -10 10 0 6 5 10 10 10 6 0 10 -4 10 -10z m280 0 c0 -5 -4 -10 -10 -10
-5 0 -10 5 -10 10 0 6 5 10 10 10 6 0 10 -4 10 -10z m3826 -17 c-7 -7 -26 7
-26 19 0 6 6 6 15 -2 9 -7 13 -15 11 -17z m-406 2 c0 -8 -6 -15 -14 -15 -17 0
-28 14 -19 24 12 12 33 6 33 -9z m820 0 c0 -8 -4 -15 -10 -15 -5 0 -10 -6 -10
-14 0 -11 -10 -14 -37 -13 -46 3 -58 27 -14 27 21 0 31 5 31 15 0 8 9 15 20
15 11 0 20 -7 20 -15z m400 6 c0 -6 -4 -13 -10 -16 -5 -3 -10 1 -10 9 0 9 5
16 10 16 6 0 10 -4 10 -9z m-170 -17 c0 -11 -5 -14 -16 -10 -9 3 -27 6 -40 6
-14 0 -22 4 -19 10 3 6 22 10 41 10 25 0 34 -4 34 -16z m1110 -11 c0 -20 -24
-11 -28 10 -2 12 1 15 12 11 9 -3 16 -13 16 -21z m-5542 -13 c10 -16 9 -18 -3
-14 -8 4 -15 10 -15 15 0 5 -7 9 -15 9 -8 0 -15 4 -15 9 0 15 35 1 48 -19z
m4237 19 c10 -15 -1 -23 -20 -15 -9 3 -13 10 -10 16 8 13 22 13 30 -1z m513
-1 c-6 -18 -28 -21 -28 -4 0 9 7 16 16 16 9 0 14 -5 12 -12z m919 -22 c-4 -9
-11 -16 -16 -16 -15 0 -23 33 -9 41 17 11 32 -5 25 -25z m414 3 c-9 -22 -10
-22 -10 -3 -1 11 2 24 6 27 12 12 14 0 4 -24z m-2868 -20 c18 -1 16 -3 -8 -10
-34 -11 -79 -3 -70 11 3 6 15 10 26 10 10 0 20 6 20 13 1 6 3 4 6 -5 2 -10 14
-18 26 -19z m260 24 c-7 -2 -19 -2 -25 0 -7 3 -2 5 12 5 14 0 19 -2 13 -5z
m892 -3 c3 -5 1 -10 -6 -10 -24 0 22 -37 60 -49 l39 -11 -31 -35 c-17 -19 -34
-35 -38 -35 -16 0 -79 73 -79 91 0 10 9 23 20 29 11 6 18 15 15 21 -4 5 -2 9
4 9 5 0 13 -4 16 -10z m335 -10 c0 -5 -4 -10 -10 -10 -5 0 -10 5 -10 10 0 6 5
10 10 10 6 0 10 -4 10 -10z m470 0 c8 -5 11 -10 5 -10 -5 0 -17 5 -25 10 -8 5
-10 10 -5 10 6 0 17 -5 25 -10z m697 -12 c-3 -8 -6 -5 -6 6 -1 11 2 17 5 13 3
-3 4 -12 1 -19z m-6067 2 c0 -5 -7 -7 -15 -4 -8 4 -15 8 -15 10 0 2 7 4 15 4
8 0 15 -4 15 -10z m4005 -38 c-18 -41 -23 -48 -31 -40 -3 4 2 17 10 30 9 14
13 27 10 31 -9 9 6 28 17 22 5 -4 2 -22 -6 -43z m1962 6 c-3 -7 -5 -2 -5 12 0
14 2 19 5 13 2 -7 2 -19 0 -25z m-817 -3 c0 -10 -10 -15 -30 -15 -20 0 -30 5
-30 15 0 10 10 15 30 15 20 0 30 -5 30 -15z m110 -9 c0 -8 -4 -17 -9 -21 -12
-7 -24 12 -16 25 9 15 25 12 25 -4z m455 -10 c18 -13 17 -13 -8 -13 -16 0 -27
5 -27 13 0 8 4 14 8 14 5 0 17 -6 27 -14z m-2365 -6 c0 -5 -4 -10 -10 -10 -5
0 -10 5 -10 10 0 6 5 10 10 10 6 0 10 -4 10 -10z m867 4 c-3 -3 -12 -4 -19 -1
-8 3 -5 6 6 6 11 1 17 -2 13 -5z m652 -76 c1 -12 -6 -18 -19 -18 -25 0 -56 60
-37 72 6 4 14 5 18 2 4 -2 11 1 16 8 7 13 19 -21 22 -64z m160 58 c14 -17 5
-43 -14 -43 -20 0 -49 33 -40 46 9 15 40 14 54 -3z m-1099 -31 c-9 -11 -16
-13 -23 -6 -7 7 -6 15 3 26 9 11 16 13 23 6 7 -7 6 -15 -3 -26z m1192 -87 c-5
-5 -16 -6 -26 -2 -14 5 -16 14 -10 53 4 25 12 52 18 60 9 11 13 1 18 -45 4
-32 4 -62 0 -66z m-4357 92 c18 -19 17 -20 -4 -20 -12 0 -19 4 -16 10 3 6 1
10 -4 10 -6 0 -11 5 -11 10 0 16 15 12 35 -10z m3076 11 c-8 -5 -20 -7 -28 -4
-21 8 -15 13 15 13 20 0 23 -3 13 -9z m184 0 c3 -5 1 -12 -5 -16 -5 -3 -10 1
-10 9 0 18 6 21 15 7z m40 -1 c3 -5 -1 -10 -9 -10 -9 0 -16 5 -16 10 0 6 4 10
9 10 6 0 13 -4 16 -10z m1135 -8 c0 -10 -3 -22 -7 -25 -10 -11 -32 13 -26 29
8 20 33 17 33 -4z m527 -4 c-3 -8 -6 -5 -6 6 -1 11 2 17 5 13 3 -3 4 -12 1
-19z m-1353 3 c3 -5 0 -11 -8 -14 -15 -6 -26 1 -26 15 0 11 27 10 34 -1z
m1819 -33 c3 -24 4 -45 1 -47 -2 -3 -17 0 -32 5 -22 8 -28 16 -30 47 -3 35 -2
37 26 37 27 0 30 -3 35 -42z m-5557 6 c-3 -9 -6 -18 -6 -20 0 -2 -4 -4 -9 -4
-5 0 -7 9 -4 20 3 11 10 20 15 20 6 0 7 -7 4 -16z m4930 6 c8 0 14 -7 14 -15
0 -22 -24 -18 -46 7 -18 20 -18 21 -1 15 10 -4 25 -7 33 -7z m366 -2 c-9 -9
-15 -9 -24 0 -9 9 -7 12 12 12 19 0 21 -3 12 -12z m-585 -20 c-3 -8 -6 -5 -6
6 -1 11 2 17 5 13 3 -3 4 -12 1 -19z m-4627 2 c-20 -13 -33 -13 -25 0 3 6 14
10 23 10 15 0 15 -2 2 -10z m163 -2 c34 -16 35 -26 2 -24 -14 0 -25 4 -25 9 0
4 -9 7 -19 7 -11 0 -23 5 -26 10 -9 14 36 12 68 -2z m3314 -18 c4 -23 11 -30
29 -30 12 0 26 -4 29 -10 3 -5 0 -10 -9 -10 -8 0 -22 -3 -32 -7 -12 -4 -15 -3
-10 5 4 7 -2 16 -17 21 -39 15 -47 61 -11 61 8 0 17 -13 21 -30z m293 -1 c0
-12 -27 -11 -35 1 -11 17 5 32 21 19 8 -6 14 -15 14 -20z m88 -14 c-13 -29
-41 -40 -65 -26 -16 9 -15 10 8 11 32 0 42 9 28 26 -16 20 -2 36 21 24 16 -9
18 -14 8 -35z m97 27 c0 -18 -20 -15 -23 4 -3 10 1 15 10 12 7 -3 13 -10 13
-16z m130 -19 c3 -13 2 -23 -3 -23 -11 0 -22 24 -22 48 0 21 15 5 25 -25z
m1020 27 c3 -5 1 -10 -4 -10 -6 0 -11 5 -11 10 0 6 2 10 4 10 3 0 8 -4 11 -10z
m-1105 -10 c0 -5 -2 -10 -4 -10 -3 0 -8 5 -11 10 -3 6 -1 10 4 10 6 0 11 -4
11 -10z m597 -5 c17 -12 39 -55 28 -55 -2 0 -16 11 -31 25 -15 14 -38 25 -50
25 -13 0 -24 5 -24 10 0 15 53 12 77 -5z m-5057 -5 c0 -5 -2 -10 -4 -10 -3 0
-8 5 -11 10 -3 6 -1 10 4 10 6 0 11 -4 11 -10z m3740 -5 c0 -8 -4 -15 -8 -15
-5 0 -9 7 -9 15 0 8 4 15 9 15 4 0 8 -7 8 -15z m-3200 -5 c0 -5 -2 -10 -4 -10
-3 0 -8 5 -11 10 -3 6 -1 10 4 10 6 0 11 -4 11 -10z m147 4 c-3 -3 -12 -4 -19
-1 -8 3 -5 6 6 6 11 1 17 -2 13 -5z m2051 -11 c-14 -18 -38 -16 -38 2 0 10 9
14 24 13 19 -2 22 -5 14 -15z m1322 7 c0 -5 -4 -10 -9 -10 -6 0 -13 5 -16 10
-3 6 1 10 9 10 9 0 16 -4 16 -10z m-7636 -6 c24 -9 19 -21 -6 -18 -13 1 -32 3
-43 4 -17 2 -16 3 5 10 14 4 26 8 27 9 1 1 8 -2 17 -5z m4229 -19 c-3 -9 -8
-14 -10 -11 -3 3 -2 9 2 15 9 16 15 13 8 -4z m3033 -3 c-16 -2 -32 0 -37 5 -5
5 7 7 29 4 34 -5 35 -6 8 -9z m-3959 -24 c-3 -8 -6 -5 -6 6 -1 11 2 17 5 13 3
-3 4 -12 1 -19z m3408 12 c3 -6 -1 -7 -9 -4 -18 7 -21 14 -7 14 6 0 13 -4 16
-10z m-2315 -10 c0 -5 -4 -10 -10 -10 -5 0 -10 5 -10 10 0 6 5 10 10 10 6 0
10 -4 10 -10z m5103 -15 c-3 -8 -9 -15 -14 -15 -10 0 -12 24 -3 33 11 11 24
-3 17 -18z m-2173 -11 c0 -9 -5 -14 -12 -12 -18 6 -21 28 -4 28 9 0 16 -7 16
-16z m137 -10 c-9 -9 -28 6 -21 18 4 6 10 6 17 -1 6 -6 8 -13 4 -17z m939 11
c18 -15 18 -15 -5 -13 -14 2 -26 9 -29 16 -5 17 10 15 34 -3z m-5081 -24 c-9
-16 -25 -3 -18 15 4 10 9 12 15 6 6 -6 7 -15 3 -21z m1644 -17 c17 -25 31 -49
31 -55 0 -13 37 -66 77 -109 18 -19 39 -53 46 -75 13 -35 18 -40 43 -37 70 6
73 9 71 57 -2 34 -6 45 -17 44 -34 -3 -60 2 -60 11 0 6 5 10 11 10 6 0 23 8
37 19 16 10 46 19 72 19 25 1 56 4 70 7 38 8 261 -24 350 -49 30 -9 71 -19 90
-22 19 -3 44 -9 55 -14 11 -4 40 -13 65 -20 91 -25 162 -54 203 -83 48 -34
167 -154 167 -168 0 -5 11 -15 25 -21 17 -8 25 -19 25 -36 0 -14 8 -35 19 -46
22 -25 61 -138 61 -177 0 -47 -17 -41 -36 11 -10 28 -22 50 -26 50 -4 0 -8 7
-8 15 0 8 -4 15 -10 15 -5 0 -7 6 -4 14 8 20 -14 30 -31 16 -12 -10 -15 -9
-15 4 0 9 5 16 12 16 6 0 4 7 -5 18 -10 10 -17 23 -17 29 0 6 -13 23 -30 36
-16 14 -30 30 -30 35 0 11 -95 92 -108 92 -4 0 -19 11 -32 25 -16 17 -33 25
-50 23 -14 -2 -24 2 -23 8 3 16 -171 98 -196 91 -11 -3 -19 -1 -15 4 3 5 -13
8 -35 7 -22 -1 -47 5 -56 12 -14 12 -109 10 -235 -5 -39 -4 -132 -32 -164 -49
-16 -8 -34 -12 -39 -9 -12 7 -57 -17 -57 -32 0 -17 50 -38 64 -26 13 10 83 8
109 -3 14 -7 17 -3 17 19 0 32 29 31 45 -2 8 -16 15 -19 26 -12 17 11 103 12
113 2 4 -5 31 -8 59 -8 42 0 52 -3 51 -16 -1 -13 11 -16 67 -17 76 0 92 -6 85
-30 -3 -10 -2 -23 3 -31 7 -11 13 -11 32 3 34 23 54 20 87 -15 25 -27 31 -29
56 -20 41 16 48 14 43 -18 -7 -41 41 -88 71 -72 17 9 24 7 37 -11 12 -16 19
-19 22 -10 7 17 23 15 23 -3 0 -8 5 -15 11 -15 5 0 7 -4 4 -10 -3 -5 -17 -10
-30 -10 -37 0 -40 -20 -6 -33 17 -6 33 -17 36 -25 2 -7 0 -10 -5 -7 -6 3 -10
1 -10 -5 0 -7 -8 -9 -20 -5 -13 4 -20 2 -20 -6 0 -10 -3 -10 -12 -1 -8 8 -8
15 2 27 11 13 8 15 -16 16 -16 1 -32 1 -36 0 -4 0 -5 5 -2 13 8 21 -28 30 -43
10 -14 -19 -16 -14 -14 22 1 13 -5 24 -16 28 -10 3 -36 17 -58 30 -21 14 -43
22 -49 19 -5 -3 -6 -1 -3 4 9 14 -109 46 -145 39 -15 -3 -28 -1 -28 4 0 12
-65 13 -88 1 -9 -5 -26 -5 -37 0 -11 4 -14 8 -7 8 6 1 12 4 12 9 0 4 -18 7
-40 7 -28 0 -39 -4 -35 -12 2 -7 -2 -13 -9 -13 -8 0 -16 5 -18 11 -2 6 -22 12
-45 13 -23 1 -48 8 -57 15 -10 9 -16 10 -16 2 0 -12 -80 -51 -105 -51 -27 0
-11 25 20 30 33 6 33 7 15 37 -11 16 -17 19 -27 11 -9 -7 -13 -7 -13 0 0 6
-11 22 -25 36 -22 22 -27 23 -39 10 -13 -12 -18 -10 -42 21 -33 44 -44 44 -40
1 3 -35 36 -86 55 -86 17 0 13 -30 -4 -37 -9 -3 -22 2 -29 13 -13 17 -14 17
-25 -4 -6 -11 -11 -28 -11 -36 0 -9 -3 -16 -7 -16 -5 0 -8 26 -8 58 0 41 -6
67 -20 87 -11 17 -18 33 -17 38 1 4 -2 7 -8 7 -5 0 -10 3 -9 8 2 15 -14 52
-22 52 -6 0 -13 8 -17 18 -14 34 -76 112 -90 112 -7 0 -11 4 -8 9 3 4 -3 16
-14 26 -11 10 -17 22 -14 26 10 17 -6 29 -26 19 -13 -7 -21 -7 -25 0 -3 5 -15
10 -25 10 -28 0 -32 14 -14 49 19 39 39 50 86 51 32 0 40 -5 67 -46z m2961 20
c0 -8 -6 -14 -14 -14 -8 0 -16 -6 -19 -12 -3 -9 -8 -10 -16 -2 -8 7 -6 16 10
32 21 23 39 21 39 -4z m980 -3 c0 -23 -16 -36 -25 -21 -9 14 1 40 15 40 5 0
10 -9 10 -19z m-4610 -1 c0 -5 -2 -10 -4 -10 -3 0 -8 5 -11 10 -3 6 -1 10 4
10 6 0 11 -4 11 -10z m4188 -10 c-13 -20 -28 -18 -28 3 0 7 9 13 20 14 16 1
18 -1 8 -17z m-1148 -16 c0 -19 -46 -19 -53 0 -4 10 2 16 16 18 28 5 37 1 37
-18z m142 -6 c-15 -15 -26 -4 -18 18 5 13 9 15 18 6 9 -9 9 -15 0 -24z m374
-23 c-10 -27 -36 -17 -36 13 0 16 3 32 7 35 10 10 36 -32 29 -48z m234 40 c19
-23 4 -35 -30 -23 -42 14 -38 28 11 37 4 0 12 -6 19 -14z m486 -20 c-4 -14
-11 -25 -16 -25 -5 0 -7 7 -5 15 3 8 7 22 10 31 9 26 18 8 11 -21z m179 25 c3
-5 1 -10 -4 -10 -6 0 -11 5 -11 10 0 6 2 10 4 10 3 0 8 -4 11 -10z m-5505 -10
c42 -10 57 -15 119 -44 37 -17 119 -94 127 -119 4 -12 15 -34 25 -49 35 -48
19 -68 -68 -87 -77 -16 -234 40 -217 78 9 21 6 58 -6 80 -8 17 -77 33 -132 33
-27 -1 -22 23 12 57 26 26 73 57 90 60 3 0 25 -4 50 -9z m4180 0 c0 -5 -4 -10
-9 -10 -6 0 -13 5 -16 10 -3 6 1 10 9 10 9 0 16 -4 16 -10z m-519 -18 c-13 -2
-27 0 -32 5 -6 6 3 7 23 4 28 -4 29 -6 9 -9z m2164 8 c3 -5 1 -10 -4 -10 -6 0
-11 5 -11 10 0 6 2 10 4 10 3 0 8 -4 11 -10z m405 -32 c0 -27 -30 -35 -46 -13
-19 25 -18 46 1 39 8 -4 15 -1 15 6 0 10 3 10 15 0 8 -7 15 -21 15 -32z
m-1666 -20 c7 -5 6 -8 -4 -8 -29 0 -38 13 -27 40 l10 25 5 -25 c2 -14 9 -28
16 -32z m1066 36 c0 -9 -7 -14 -17 -12 -25 5 -28 28 -4 28 12 0 21 -6 21 -16z
m-3050 -24 c-6 -11 -15 -20 -20 -20 -14 0 -12 27 3 33 23 10 28 7 17 -13z
m2530 5 c0 -8 -4 -15 -10 -15 -5 0 -10 7 -10 15 0 8 5 15 10 15 6 0 10 -7 10
-15z m592 -7 c-7 -7 -12 -8 -12 -2 0 14 12 26 19 19 2 -3 -1 -11 -7 -17z
m-112 -13 c0 -14 -4 -25 -10 -25 -5 0 -10 11 -10 25 0 14 5 25 10 25 6 0 10
-11 10 -25z m-50 5 c0 -5 -4 -10 -10 -10 -5 0 -10 5 -10 10 0 6 5 10 10 10 6
0 10 -4 10 -10z m-1030 -14 c0 -8 -4 -18 -10 -21 -5 -3 -10 3 -10 14 0 12 5
21 10 21 6 0 10 -6 10 -14z m778 -9 c2 -12 -3 -17 -17 -17 -15 0 -21 6 -21 21
0 25 33 22 38 -4z m-250 2 c-2 -6 -8 -10 -13 -10 -5 0 -11 4 -13 10 -2 6 4 11
13 11 9 0 15 -5 13 -11z m202 -10 c0 -5 -4 -9 -10 -9 -5 0 -10 7 -10 16 0 8 5
12 10 9 6 -3 10 -10 10 -16z m560 5 c0 -14 -3 -14 -15 -4 -8 7 -15 14 -15 16
0 2 7 4 15 4 8 0 15 -7 15 -16z m-1174 -30 c-5 -13 -10 -14 -18 -6 -6 6 -8 18
-4 28 5 13 10 14 18 6 6 -6 8 -18 4 -28z m730 -11 c7 -10 14 -25 14 -34 0 -19
-26 -33 -28 -16 -1 7 -4 24 -8 40 -7 31 3 35 22 10z m-526 -17 c0 -8 -7 -16
-15 -20 -10 -4 -15 1 -15 14 0 11 7 20 15 20 8 0 15 -6 15 -14z m463 8 c8 -8
-3 -34 -14 -34 -5 0 -9 9 -9 20 0 19 11 26 23 14z m-749 -19 c-4 -8 -12 -15
-20 -15 -8 0 -14 7 -14 15 0 8 9 15 20 15 13 0 18 -5 14 -15z m601 5 c-3 -5
-10 -10 -16 -10 -5 0 -9 5 -9 10 0 6 7 10 16 10 8 0 12 -4 9 -10z m826 -33
c-8 -8 -11 -7 -11 4 0 20 13 34 18 19 3 -7 -1 -17 -7 -23z m-641 8 c0 -8 -4
-15 -10 -15 -5 0 -10 -7 -10 -15 0 -17 -16 -20 -25 -4 -7 11 22 49 37 49 4 0
8 -7 8 -15z m-732 -19 c28 -17 43 -21 55 -14 31 17 19 -17 -14 -41 -25 -19
-33 -21 -40 -10 -5 8 -4 18 2 24 7 7 -1 19 -23 37 -41 34 -30 36 20 4z m802 4
c0 -5 -4 -10 -10 -10 -5 0 -10 5 -10 10 0 6 5 10 10 10 6 0 10 -4 10 -10z
m-1230 -21 c0 -5 -7 -9 -15 -9 -15 0 -20 12 -9 23 8 8 24 -1 24 -14z m960 -19
c0 -5 -5 -10 -11 -10 -5 0 -7 5 -4 10 3 6 8 10 11 10 2 0 4 -4 4 -10z m-1060
-10 c0 -5 -2 -10 -4 -10 -3 0 -8 5 -11 10 -3 6 -1 10 4 10 6 0 11 -4 11 -10z
m1576 -3 c8 3 14 -1 14 -10 0 -9 3 -24 7 -34 6 -16 5 -16 -10 -5 -9 8 -20 11
-25 8 -6 -3 -15 0 -21 8 -14 17 -3 52 12 37 5 -5 16 -7 23 -4z m-1302 -19 c14
-6 33 -22 42 -36 15 -23 13 -22 -30 7 -58 40 -63 53 -12 29z m1136 -7 c0 -11
-4 -23 -10 -26 -6 -4 -10 5 -10 19 0 14 5 26 10 26 6 0 10 -9 10 -19z m-911
-14 c6 -8 8 -17 4 -20 -7 -8 -33 11 -33 24 0 13 16 11 29 -4z m131 3 c8 -5 12
-11 9 -14 -3 -3 -14 1 -25 9 -21 16 -8 20 16 5z m-4201 -26 c19 -15 31 -35 31
-49 0 -13 5 -27 10 -30 19 -12 57 -99 64 -147 6 -40 15 -54 72 -106 64 -60 65
-61 117 -56 203 16 189 17 240 -10 26 -14 82 -54 125 -89 42 -35 95 -74 117
-87 22 -12 74 -57 115 -99 41 -42 99 -96 128 -120 58 -47 167 -196 177 -240 3
-16 32 -59 63 -96 31 -37 65 -77 75 -89 10 -12 22 -48 26 -79 7 -50 12 -60 58
-101 57 -51 90 -111 98 -178 3 -25 15 -56 25 -69 27 -30 25 -32 -10 -14 -16 8
-33 15 -38 15 -17 0 -10 -55 9 -68 10 -7 21 -28 25 -47 3 -19 10 -35 14 -35
14 0 30 -62 31 -123 1 -32 8 -65 15 -72 7 -7 10 -15 7 -19 -4 -3 -1 -6 5 -6 7
0 12 -7 12 -16 0 -23 -32 -13 -46 14 -10 20 -13 21 -24 7 -19 -23 -43 -18 -73
16 -18 20 -27 26 -27 16 0 -28 -20 -29 -30 -2 -5 14 -14 24 -19 21 -4 -3 -19
6 -31 19 -13 14 -29 25 -36 25 -6 0 -19 16 -28 35 -9 19 -24 38 -32 43 -9 5
-14 11 -12 13 1 2 -15 26 -37 52 -29 35 -42 60 -47 95 -15 111 -50 201 -140
366 -31 57 -14 106 36 106 29 0 35 6 29 30 -4 13 -17 22 -42 26 -77 12 -140
45 -194 101 -111 117 -125 130 -179 156 -59 29 -97 34 -115 16 -6 -6 -40 -12
-75 -12 -57 -1 -73 4 -167 53 -182 94 -232 165 -151 217 34 22 49 33 98 70 23
18 23 19 5 34 -44 37 -98 48 -180 36 -114 -17 -176 -13 -231 15 -66 32 -67 57
-7 115 26 25 60 49 76 55 32 11 48 46 28 59 -8 5 -44 9 -80 9 -70 0 -126 17
-150 46 -11 14 -11 18 -1 22 28 9 142 117 142 134 0 12 13 24 33 33 46 20 61
18 96 -11z m3836 6 c3 -5 -1 -10 -9 -10 -9 0 -15 -5 -13 -11 1 -6 -4 -14 -12
-17 -10 -3 -12 0 -8 12 4 10 7 22 7 27 0 12 27 12 35 -1z m458 -5 c-3 -9 -8
-14 -10 -11 -3 3 -2 9 2 15 9 16 15 13 8 -4z m747 6 c0 -5 -7 -14 -15 -21 -16
-14 -18 -10 -9 14 6 17 24 22 24 7z m510 5 c0 -3 -4 -8 -10 -11 -5 -3 -10 -1
-10 4 0 6 5 11 10 11 6 0 10 -2 10 -4z m-1123 -38 c-3 -8 -6 -5 -6 6 -1 11 2
17 5 13 3 -3 4 -12 1 -19z m-783 -3 c-4 -8 -10 -12 -15 -9 -11 6 -2 24 11 24
5 0 7 -7 4 -15z m1443 -21 c9 -23 -13 -40 -32 -24 -12 10 -13 16 -4 26 15 18
28 18 36 -2z m-867 -14 c8 -5 11 -10 5 -10 -5 0 -17 5 -25 10 -8 5 -10 10 -5
10 6 0 17 -5 25 -10z m150 -24 c0 -16 -18 -31 -27 -22 -8 8 5 36 17 36 5 0 10
-6 10 -14z m-2875 -16 c3 -5 1 -10 -4 -10 -6 0 -11 5 -11 10 0 6 2 10 4 10 3
0 8 -4 11 -10z m1935 -32 c0 -5 0 -12 0 -18 0 -5 -6 -10 -14 -10 -18 0 -48 29
-41 40 6 10 55 -1 55 -12z m340 18 c0 -3 -4 -8 -10 -11 -5 -3 -10 -1 -10 4 0
6 5 11 10 11 6 0 10 -2 10 -4z m250 -41 c0 -16 -6 -25 -15 -25 -18 0 -20 21
-3 38 17 17 18 16 18 -13z m350 11 c0 -16 -18 -31 -27 -22 -8 8 5 36 17 36 5
0 10 -6 10 -14z m570 -26 c0 -5 -4 -10 -10 -10 -5 0 -10 5 -10 10 0 6 5 10 10
10 6 0 10 -4 10 -10z m-3103 -32 c-3 -8 -6 -5 -6 6 -1 11 2 17 5 13 3 -3 4
-12 1 -19z m2210 -15 c-3 -3 -11 -2 -17 2 -8 5 -7 11 2 22 12 15 13 14 16 -1
2 -10 1 -20 -1 -23z m-2579 -5 c-6 -18 -28 -21 -28 -4 0 9 7 16 16 16 9 0 14
-5 12 -12z m3342 -4 c0 -8 -4 -12 -10 -9 -5 3 -10 10 -10 16 0 5 5 9 10 9 6 0
10 -7 10 -16z m165 5 c11 -17 -1 -21 -15 -4 -8 9 -8 15 -2 15 6 0 14 -5 17
-11z m255 -4 c0 -8 -7 -15 -15 -15 -16 0 -20 12 -8 23 11 12 23 8 23 -8z
m-3448 -12 c24 -21 23 -33 -2 -33 -11 0 -20 4 -20 9 0 5 -3 16 -6 25 -8 21 5
20 28 -1z m358 7 c0 -5 -12 -10 -26 -10 -14 0 -23 4 -19 10 3 6 15 10 26 10
10 0 19 -4 19 -10z m300 0 c0 -5 -4 -10 -10 -10 -5 0 -10 5 -10 10 0 6 5 10
10 10 6 0 10 -4 10 -10z m-842 -30 c17 -16 32 -34 32 -40 0 -5 7 -10 15 -10
26 0 16 -27 -15 -40 -16 -7 -30 -16 -30 -21 0 -5 -9 -9 -20 -9 -11 0 -20 -6
-20 -13 0 -23 -68 -79 -92 -75 -28 4 -36 28 -9 28 23 0 37 16 19 23 -23 8 38
56 63 50 18 -5 20 -3 15 14 -5 15 -1 22 15 26 16 4 19 10 14 29 -4 13 -15 30
-26 40 -10 9 -19 19 -19 22 0 15 28 3 58 -24z m2972 18 c0 -6 -3 -8 -7 -5 -3
4 -13 1 -22 -6 -14 -11 -14 -10 -2 6 15 20 31 22 31 5z m-210 -23 c0 -26 -14
-33 -25 -15 -9 14 1 40 15 40 5 0 10 -11 10 -25z m-2897 -23 c16 -7 13 -12
-19 -40 -20 -17 -40 -29 -45 -26 -13 7 -1 24 17 24 17 0 19 17 2 22 -14 5 -1
28 15 27 7 0 20 -4 30 -7z m245 -4 c17 -17 15 -28 -7 -28 -22 0 -35 15 -26 30
8 13 18 13 33 -2z m2732 3 c0 -12 -20 -25 -27 -18 -7 7 6 27 18 27 5 0 9 -4 9
-9z m270 -1 c0 -5 -4 -10 -9 -10 -6 0 -13 5 -16 10 -3 6 1 10 9 10 9 0 16 -4
16 -10z m360 -20 c0 -5 -4 -10 -10 -10 -5 0 -10 5 -10 10 0 6 5 10 10 10 6 0
10 -4 10 -10z m-2560 -16 c0 -14 -3 -14 -15 -4 -8 7 -15 14 -15 16 0 2 7 4 15
4 8 0 15 -7 15 -16z m1561 -27 c-8 -8 -11 -5 -11 9 0 27 14 41 18 19 2 -9 -1
-22 -7 -28z m-1504 3 c3 -11 9 -20 14 -20 5 0 9 -4 9 -10 0 -18 -29 -11 -40 9
-13 25 -13 41 1 41 6 0 13 -9 16 -20z m2559 -46 c-4 -13 -11 -24 -16 -24 -11
0 -14 63 -3 74 12 11 25 -24 19 -50z m-686 32 c0 -20 -16 -36 -36 -36 -25 0
-34 24 -11 33 15 7 47 8 47 3z m-1113 -43 c-9 -9 -20 -13 -24 -9 -4 4 1 14 11
22 25 18 35 8 13 -13z m1303 15 c0 -11 -28 -10 -35 1 -3 6 4 9 15 8 11 -1 20
-5 20 -9z m180 3 c0 -12 -20 -25 -27 -18 -7 7 6 27 18 27 5 0 9 -4 9 -9z
m-2274 -41 c8 0 14 -4 14 -10 0 -5 -4 -10 -10 -10 -14 0 -50 38 -50 52 0 7 7
2 16 -10 8 -12 22 -22 30 -22z m2448 25 c-6 -16 -24 -21 -24 -7 0 11 11 22 21
22 5 0 6 -7 3 -15z m-244 -12 c0 -9 -8 -13 -22 -11 -30 4 -33 23 -3 24 16 1
25 -3 25 -13z m-3372 -5 c-5 -15 -48 -24 -48 -10 0 14 12 22 33 22 10 0 17 -5
15 -12z m1112 2 c0 -5 -4 -10 -10 -10 -5 0 -10 5 -10 10 0 6 5 10 10 10 6 0
10 -4 10 -10z m2740 0 c8 -5 11 -12 8 -16 -10 -9 -38 3 -38 16 0 12 10 13 30
0z m290 -5 c-7 -8 -17 -15 -22 -15 -6 0 -5 7 2 15 7 8 17 15 22 15 6 0 5 -7
-2 -15z m-2918 -17 c-7 -7 -12 -8 -12 -2 0 14 12 26 19 19 2 -3 -1 -11 -7 -17z
m-545 -30 c-3 -8 -6 -5 -6 6 -1 11 2 17 5 13 3 -3 4 -12 1 -19z m3688 1 c11
-17 -1 -21 -15 -4 -8 9 -8 15 -2 15 6 0 14 -5 17 -11z m-3811 -8 c3 -5 -1 -14
-8 -20 -12 -10 -13 -8 -9 8 6 23 9 25 17 12z m-480 -26 c-9 -14 -25 -30 -35
-36 -16 -8 -19 -6 -19 10 0 12 9 21 25 25 14 4 25 11 25 16 0 6 5 10 10 10 6
0 3 -11 -6 -25z m356 5 c0 -5 -4 -10 -10 -10 -5 0 -10 5 -10 10 0 6 5 10 10
10 6 0 10 -4 10 -10z m400 -14 c0 -6 -10 -12 -22 -13 -43 -3 -83 -10 -103 -18
-18 -8 -19 -7 -6 9 13 15 13 19 0 27 -10 6 -5 8 16 5 17 -1 39 0 50 4 25 9 65
1 65 -14z m391 -12 c7 -28 7 -28 14 -6 9 28 25 29 25 1 0 -12 -8 -23 -18 -26
-14 -3 -18 -11 -14 -31 l4 -27 -23 23 c-20 19 -21 24 -10 31 12 8 12 13 -2 35
-21 32 -21 35 1 32 10 -2 20 -15 23 -32z m-1327 -29 c25 -23 42 -32 56 -28 17
5 20 1 19 -23 -2 -16 1 -40 5 -53 l8 -24 -35 27 c-20 15 -37 32 -39 37 -2 6
-21 3 -47 -6 -60 -21 -67 -19 -85 17 -19 36 -19 38 -7 38 5 0 11 -9 14 -20 6
-23 39 -39 45 -22 2 7 12 12 22 12 42 0 31 21 -28 56 -1 0 0 8 4 17 7 20 25
13 68 -28z m706 25 c10 0 21 4 24 9 6 9 56 3 56 -8 0 -5 -92 -32 -96 -27 -1 0
-4 12 -8 26 -3 14 -3 19 0 13 3 -7 14 -13 24 -13z m-102 -23 c2 -12 -3 -17
-17 -17 -12 0 -21 -6 -21 -14 0 -9 -7 -12 -19 -9 -10 3 -22 0 -25 -6 -4 -6
-12 -11 -18 -11 -6 0 -4 8 5 18 10 10 14 22 10 25 -3 4 2 15 11 26 21 23 69
15 74 -12z m45 -2 c-21 -16 -26 -14 -17 8 3 9 12 13 20 10 12 -4 11 -8 -3 -18z
m2611 17 c2 -4 -1 -18 -8 -30 -11 -20 -14 -21 -25 -9 -8 11 -9 17 -1 22 6 3 8
11 5 16 -4 5 1 9 9 9 8 0 17 -3 20 -8z m-2390 -17 c3 -9 0 -15 -9 -15 -16 0
-27 14 -18 24 10 10 21 7 27 -9z m137 -10 l44 -26 -49 7 c-40 5 -47 4 -41 -7
6 -11 5 -11 -4 -3 -10 9 -19 9 -39 -2 -26 -13 -42 -11 -42 7 0 5 13 9 28 9 16
0 32 3 36 8 4 4 12 8 17 8 22 3 23 5 9 14 -32 21 0 9 41 -15z m2649 16 c0 -5
-7 -14 -15 -21 -16 -14 -18 -10 -9 14 6 17 24 22 24 7z m-3250 -10 c0 -5 3
-18 7 -28 6 -16 5 -16 -10 -4 -19 15 -23 41 -7 41 6 0 10 -4 10 -9z m90 -20
c0 -5 -7 -12 -16 -15 -21 -8 -24 -8 -24 4 0 6 8 10 17 10 15 0 14 2 -3 16 -18
14 -18 15 4 4 12 -6 22 -15 22 -19z m199 0 c20 -15 21 -19 7 -24 -9 -4 -16 -2
-16 4 0 6 -6 9 -14 6 -15 -6 -30 16 -19 27 9 9 16 7 42 -13z m2509 7 c-6 -18
-28 -21 -28 -4 0 9 7 16 16 16 9 0 14 -5 12 -12z m1390 -32 c-3 -15 -5 -15
-22 -3 -13 9 -17 20 -12 32 6 17 8 17 22 3 9 -9 14 -23 12 -32z m-4468 24 c0
-5 -7 -10 -16 -10 -8 0 -12 5 -9 10 3 6 10 10 16 10 5 0 9 -4 9 -10z m228 -21
c-3 -8 -7 -3 -11 10 -4 17 -3 21 5 13 5 -5 8 -16 6 -23z m2022 27 c0 -3 -4 -8
-10 -11 -5 -3 -10 -1 -10 4 0 6 5 11 10 11 6 0 10 -2 10 -4z m2050 -6 c0 -5
-4 -10 -10 -10 -5 0 -10 5 -10 10 0 6 5 10 10 10 6 0 10 -4 10 -10z m-3675
-40 c-5 -16 -10 -19 -18 -11 -7 7 -6 15 3 26 17 20 24 13 15 -15z m-466 7 c8
-11 5 -13 -19 -9 -16 2 -27 8 -24 13 8 13 30 11 43 -4z m3549 -13 c-9 -9 -21
-13 -27 -9 -16 10 -3 25 22 25 20 0 20 -1 5 -16z m-803 -4 c3 -5 1 -10 -4 -10
-6 0 -11 5 -11 10 0 6 2 10 4 10 3 0 8 -4 11 -10z m-3034 -40 c22 0 26 -15 5
-23 -19 -8 -47 29 -38 50 6 16 7 15 10 -4 2 -15 10 -23 23 -23z m404 30 c3 -5
1 -10 -4 -10 -6 0 -11 5 -11 10 0 6 2 10 4 10 3 0 8 -4 11 -10z m1821 -16 c-5
-14 -9 -15 -19 -5 -9 9 -9 14 3 21 18 11 24 6 16 -16z m1214 8 c0 -18 -18 -42
-31 -42 -5 0 -3 14 2 30 12 33 29 40 29 12z m-3078 -24 c-9 -9 -15 -9 -24 1
-9 10 -9 12 -1 7 6 -3 15 -1 18 5 4 5 10 8 13 4 3 -3 0 -11 -6 -17z m38 -12
c0 -2 -7 -7 -16 -10 -8 -3 -12 -2 -9 4 6 10 25 14 25 6z m3070 -9 c0 -7 -6
-21 -13 -32 -11 -14 -16 -15 -22 -5 -5 9 -4 15 3 18 7 2 12 10 12 18 0 8 5 14
10 14 6 0 10 -6 10 -13z m-146 -6 c3 -5 -1 -14 -9 -21 -8 -7 -12 -16 -9 -21 3
-5 1 -9 -4 -9 -11 0 -23 40 -16 52 7 11 31 10 38 -1z m296 -42 c0 -24 -4 -30
-17 -27 -22 4 -29 34 -13 53 17 21 30 9 30 -26z m-3555 1 c3 -5 1 -10 -4 -10
-6 0 -11 5 -11 10 0 6 2 10 4 10 3 0 8 -4 11 -10z m1209 -9 c4 -5 1 -11 -6
-13 -9 -3 -8 -9 4 -21 21 -22 34 -21 47 1 6 9 11 12 11 6 0 -11 27 -19 85 -28
11 -1 33 -8 48 -14 16 -7 37 -12 47 -12 34 0 184 -80 208 -111 13 -16 37 -36
53 -44 41 -22 109 -117 102 -144 -3 -11 -7 -21 -10 -21 -15 0 -54 29 -95 70
-52 54 -128 86 -177 75 -19 -4 -33 -1 -44 9 -19 19 -67 32 -67 17 0 -7 -28
-10 -79 -8 -44 1 -77 -1 -75 -4 2 -4 -5 -9 -16 -12 -13 -3 -20 0 -20 10 0 9
-6 13 -14 10 -22 -9 -28 5 -8 19 16 13 16 13 -1 14 -10 0 -20 6 -23 13 -4 12
-36 14 -104 8 -9 0 -17 -12 -18 -28 -1 -14 -4 -28 -6 -30 -8 -8 -55 -15 -121
-18 l-70 -3 30 24 c17 13 34 24 39 24 5 0 39 25 77 55 37 30 73 55 79 55 25 0
81 33 70 40 -9 6 -6 14 9 29 11 11 21 26 21 31 0 13 17 13 24 1z m2316 -100
c0 -5 -7 -14 -15 -21 -12 -10 -15 -10 -15 2 0 8 3 18 7 21 9 10 23 9 23 -2z
m-233 -28 c-9 -9 -19 -14 -23 -11 -10 10 6 28 24 28 15 0 15 -1 -1 -17z m-47
-37 c0 -16 -14 -36 -26 -36 -14 0 -19 22 -7 33 7 8 33 10 33 3z m565 -6 c7
-12 -12 -40 -26 -40 -10 0 -12 34 -2 43 9 10 21 9 28 -3z m325 -11 c0 -6 -4
-7 -10 -4 -5 3 -10 11 -10 16 0 6 5 7 10 4 6 -3 10 -11 10 -16z m-1318 -51
c-7 -7 -12 -8 -12 -2 0 14 12 26 19 19 2 -3 -1 -11 -7 -17z m-1687 -37 c-3 -6
-14 -11 -23 -11 -13 0 -13 2 4 14 21 15 30 14 19 -3z m2705 -6 c0 -8 -7 -15
-16 -15 -14 0 -14 3 -4 15 7 8 14 15 16 15 2 0 4 -7 4 -15z m595 -35 c3 -5 -1
-10 -9 -10 -9 0 -16 5 -16 10 0 6 4 10 9 10 6 0 13 -4 16 -10z m-1135 -12 c0
-19 -31 -48 -52 -48 -10 0 -18 4 -18 9 0 5 -9 7 -20 4 -12 -3 -20 0 -20 6 0 7
5 9 11 6 6 -4 16 0 22 8 18 23 77 35 77 15z m640 -90 c0 -26 -17 -14 -22 17
-4 20 -3 23 8 14 8 -6 14 -20 14 -31z m-2380 18 c0 -3 -4 -8 -10 -11 -5 -3
-10 -1 -10 4 0 6 5 11 10 11 6 0 10 -2 10 -4z m45 -46 c3 -5 20 -7 37 -3 23 5
30 3 26 -8 -2 -7 -15 -16 -29 -20 -13 -4 -18 -7 -10 -8 8 -1 4 -8 -11 -20 -20
-16 -32 -18 -61 -11 -20 4 -35 4 -32 0 6 -10 -30 -13 -122 -8 -50 2 -117 -10
-151 -27 -27 -14 -39 -15 -58 -6 -14 6 -36 11 -49 11 -14 0 -25 4 -25 9 0 20
33 41 66 41 19 0 60 9 92 20 40 14 81 20 137 20 44 -1 94 3 110 9 40 12 72 13
80 1z m1792 -10 c2 -23 -12 -35 -22 -20 -4 6 -1 17 5 25 16 19 15 19 17 -5z
m-329 -2 c-6 -18 -28 -21 -28 -4 0 9 7 16 16 16 9 0 14 -5 12 -12z m-250 -36
c6 -18 -15 -14 -22 4 -4 10 -1 14 6 12 6 -2 14 -10 16 -16z m1540 -7 c-3 -3
-9 2 -12 12 -6 14 -5 15 5 6 7 -7 10 -15 7 -18z m-2588 -5 c0 -11 -7 -23 -15
-27 -21 -8 -28 1 -20 26 8 27 35 27 35 1z m-662 -40 c18 -29 -10 -39 -79 -30
-31 4 -76 4 -100 0 -49 -9 -89 4 -70 23 11 11 205 36 226 30 6 -2 16 -12 23
-23z m325 -6 c-6 -17 -19 -18 -28 -4 -5 8 -11 8 -20 0 -9 -8 -15 -8 -20 0 -3
5 1 10 9 10 9 0 16 4 16 9 0 4 11 6 24 4 16 -3 23 -10 19 -19z m357 -13 c0
-12 -20 -25 -27 -18 -7 7 6 27 18 27 5 0 9 -4 9 -9z m237 -23 c-3 -8 -6 -5 -6
6 -1 11 2 17 5 13 3 -3 4 -12 1 -19z m-677 2 c0 -5 -7 -10 -16 -10 -8 0 -12 5
-9 10 3 6 10 10 16 10 5 0 9 -4 9 -10z m2240 -50 c0 -5 -5 -10 -11 -10 -5 0
-7 5 -4 10 3 6 8 10 11 10 2 0 4 -4 4 -10z m-270 -49 c0 -19 -17 -48 -24 -41
-5 6 -9 30 -7 52 1 22 31 12 31 -11z m590 4 c0 -16 -6 -25 -15 -25 -9 0 -15 9
-15 25 0 16 6 25 15 25 9 0 15 -9 15 -25z m-470 -15 c0 -5 -5 -10 -11 -10 -5
0 -7 5 -4 10 3 6 8 10 11 10 2 0 4 -4 4 -10z m-1168 -32 c-7 -7 -12 -8 -12 -2
0 14 12 26 19 19 2 -3 -1 -11 -7 -17z m1086 -35 c-4 -34 -28 -43 -28 -10 0 25
7 37 22 37 5 0 8 -12 6 -27z m-268 -32 c0 -5 -7 -11 -15 -15 -15 -5 -20 5 -8
17 9 10 23 9 23 -2z m110 -4 c0 -14 -20 -37 -32 -37 -12 0 -10 24 4 38 16 16
28 15 28 -1z m1208 -115 c3 -20 0 -23 -20 -20 -15 2 -24 11 -26 26 -3 20 0 23
20 20 15 -2 24 -11 26 -26z m-4140 -47 c11 -23 10 -24 -8 -13 -11 7 -20 18
-20 25 0 22 16 14 28 -12z m2842 -16 c0 -5 -4 -9 -10 -9 -5 0 -10 7 -10 16 0
8 5 12 10 9 6 -3 10 -10 10 -16z m760 -34 c0 -28 -15 -34 -24 -9 -10 25 -7 34
9 34 9 0 15 -9 15 -25z m-843 -147 c-3 -8 -6 -5 -6 6 -1 11 2 17 5 13 3 -3 4
-12 1 -19z m1508 -18 c3 -5 1 -10 -4 -10 -6 0 -11 5 -11 10 0 6 2 10 4 10 3 0
8 -4 11 -10z m25 -125 c0 -19 -4 -35 -10 -35 -11 0 -14 53 -3 63 11 12 13 8
13 -28z m-4327 11 c4 -10 1 -13 -9 -9 -7 3 -14 9 -14 14 0 14 17 10 23 -5z
m4007 -420 c0 -3 -4 -8 -10 -11 -5 -3 -10 -1 -10 4 0 6 5 11 10 11 6 0 10 -2
10 -4z"/>
<path d="M5470 5490 c0 -5 5 -10 10 -10 6 0 10 5 10 10 0 6 -4 10 -10 10 -5 0
-10 -4 -10 -10z"/>
<path d="M6710 4330 c0 -5 6 -10 14 -10 8 0 17 -6 19 -12 4 -8 6 -7 6 3 1 9
-6 20 -15 23 -21 8 -24 8 -24 -4z"/>
<path d="M5357 4714 c-11 -11 -8 -26 3 -19 6 3 10 1 10 -6 0 -7 3 -10 6 -6 3
3 2 13 -3 22 -5 8 -12 12 -16 9z"/>
<path d="M2504 4535 c-3 -8 -4 -20 -2 -27 3 -7 7 -1 10 15 6 29 1 36 -8 12z"/>
<path d="M2635 4280 c-10 -16 6 -57 30 -80 13 -12 21 -28 19 -35 -3 -7 4 -15
15 -18 15 -3 19 -10 15 -22 -4 -9 -12 -14 -19 -11 -23 9 -10 -28 20 -56 29
-26 29 -27 8 -28 -20 0 -23 -5 -23 -36 0 -42 23 -43 28 -1 l3 27 33 -25 c29
-22 66 -33 66 -20 0 2 -18 30 -40 61 -22 32 -40 61 -40 65 0 5 -12 34 -26 66
-15 31 -27 62 -28 67 -7 38 -47 69 -61 46z"/>
<path d="M5360 3602 c0 -9 40 -35 46 -29 6 6 -25 37 -37 37 -5 0 -9 -3 -9 -8z"/>
<path d="M5340 3552 c0 -12 19 -26 26 -19 2 2 -2 10 -11 17 -9 8 -15 8 -15 2z"/>
<path d="M2985 3711 c-3 -5 -2 -12 3 -15 5 -3 9 1 9 9 0 17 -3 19 -12 6z"/>
<path d="M3031 3652 c-18 -3 -21 -6 -10 -12 8 -5 14 -29 15 -57 4 -107 1 -97
29 -79 13 9 42 16 64 16 44 0 59 13 41 36 -10 12 -16 12 -28 2 -13 -11 -15
-10 -9 4 4 11 2 17 -6 15 -7 -1 -11 7 -9 18 2 19 2 19 -11 3 -15 -19 -57 -25
-57 -9 0 5 9 7 20 4 11 -3 20 0 20 6 0 6 -5 11 -11 11 -14 0 -40 26 -32 33 3
4 14 2 24 -4 11 -5 19 -7 19 -5 0 11 -36 22 -59 18z"/>
<path d="M2932 3580 c-18 -11 -47 -20 -65 -20 -21 0 -42 -9 -60 -25 -42 -39
-35 -51 45 -78 83 -28 158 -2 158 55 0 19 -31 88 -39 88 -3 0 -21 -9 -39 -20z"/>
<path d="M4173 3053 c9 -2 23 -2 30 0 6 3 -1 5 -18 5 -16 0 -22 -2 -12 -5z"/>
<path d="M4228 3053 c7 -3 16 -2 19 1 4 3 -2 6 -13 5 -11 0 -14 -3 -6 -6z"/>
<path d="M5246 2717 c3 -10 9 -15 12 -12 3 3 0 11 -7 18 -10 9 -11 8 -5 -6z"/>
<path d="M5557 2636 c-7 -18 23 -30 37 -16 8 8 7 14 -4 20 -21 13 -27 12 -33
-4z"/>
<path d="M5905 2410 c-3 -5 -1 -10 4 -10 6 0 11 5 11 10 0 6 -2 10 -4 10 -3 0
-8 -4 -11 -10z"/>
<path d="M6420 2198 c0 -18 18 -34 28 -24 3 4 -2 14 -11 23 -16 16 -17 16 -17
1z"/>
<path d="M6617 1592 c-9 -2 -15 -12 -14 -23 1 -17 7 -20 32 -16 20 3 34 -1 43
-12 12 -14 12 -13 7 6 -5 18 -2 20 15 16 14 -4 20 -1 20 10 0 11 -13 16 -43
18 -24 2 -51 3 -60 1z"/>
</g>
</svg>
