<svg width="135" height="54" viewBox="0 0 135 54" fill="none" xmlns="http://www.w3.org/2000/svg">
<path d="M8 19.5H1C0.200002 11.9 2.66667 9.66667 4 9.5H22L13 33L8 19.5Z" fill="#159E91"/>
<path d="M9 40L1 24V34C1 38 3.33333 39.6667 4.5 40H9Z" fill="#002B6B"/>
<path d="M31.5 33V14L18 39H26.5C30.1 39 31.3333 35 31.5 33Z" fill="#002B6B"/>
<path d="M44.401 36.926C44.2283 37 43.9817 37.0617 43.661 37.111C43.365 37.185 43.032 37.222 42.662 37.222C41.9467 37.222 41.4163 37.0863 41.071 36.815C40.7257 36.5437 40.553 36.0873 40.553 35.446V23.31C40.553 22.6933 40.6763 22.2 40.923 21.83C41.1697 21.4353 41.5643 21.0653 42.107 20.72C42.8223 20.276 43.735 19.906 44.845 19.61C45.955 19.314 47.176 19.166 48.508 19.166C50.6787 19.166 51.764 19.7827 51.764 21.016C51.764 21.312 51.7147 21.5957 51.616 21.867C51.5173 22.1137 51.4063 22.3357 51.283 22.533C51.0363 22.4837 50.728 22.4343 50.358 22.385C49.988 22.3357 49.5933 22.311 49.174 22.311C48.1873 22.311 47.287 22.422 46.473 22.644C45.659 22.8413 44.9683 23.1003 44.401 23.421V36.926ZM56.7934 30.303C57.1387 31.709 57.8047 32.7573 58.7914 33.448C59.8027 34.114 61.0854 34.447 62.6394 34.447C63.6754 34.447 64.6251 34.2867 65.4884 33.966C66.3517 33.6453 67.0424 33.3 67.5604 32.93C68.2511 33.3247 68.5964 33.8797 68.5964 34.595C68.5964 35.0143 68.4361 35.409 68.1154 35.779C67.7947 36.1243 67.3507 36.4327 66.7834 36.704C66.2407 36.9507 65.5871 37.148 64.8224 37.296C64.0824 37.444 63.2807 37.518 62.4174 37.518C60.9867 37.518 59.6794 37.3207 58.4954 36.926C57.3361 36.5313 56.3371 35.9393 55.4984 35.15C54.6597 34.3607 54.0061 33.3863 53.5374 32.227C53.0934 31.0677 52.8714 29.7233 52.8714 28.194C52.8714 26.714 53.0934 25.419 53.5374 24.309C53.9814 23.1743 54.5857 22.237 55.3504 21.497C56.1151 20.7323 57.0154 20.1527 58.0514 19.758C59.0874 19.3633 60.1974 19.166 61.3814 19.166C62.5654 19.166 63.6384 19.3633 64.6004 19.758C65.5871 20.128 66.4257 20.6583 67.1164 21.349C67.8317 22.015 68.3744 22.8167 68.7444 23.754C69.1391 24.6913 69.3364 25.715 69.3364 26.825C69.3364 27.4417 69.1884 27.898 68.8924 28.194C68.5964 28.4653 68.1647 28.6503 67.5974 28.749L56.7934 30.303ZM61.3814 22.163C60.0247 22.163 58.8901 22.6193 57.9774 23.532C57.0894 24.4447 56.6207 25.752 56.5714 27.454L65.6734 26.159C65.5747 25.049 65.1677 24.1117 64.4524 23.347C63.7371 22.5577 62.7134 22.163 61.3814 22.163ZM85.6256 32.227C85.6256 33.8797 85.009 35.1747 83.7757 36.112C82.5423 37.0493 80.754 37.518 78.4106 37.518C77.4486 37.518 76.5606 37.444 75.7466 37.296C74.9326 37.148 74.2296 36.9383 73.6376 36.667C73.0703 36.3957 72.6263 36.075 72.3056 35.705C71.985 35.335 71.8246 34.928 71.8246 34.484C71.8246 34.114 71.911 33.7687 72.0836 33.448C72.281 33.1273 72.54 32.8683 72.8606 32.671C73.5513 33.115 74.3406 33.522 75.2286 33.892C76.1166 34.262 77.1526 34.447 78.3366 34.447C79.4466 34.447 80.2976 34.262 80.8896 33.892C81.4816 33.4973 81.7776 32.9423 81.7776 32.227C81.7776 31.6103 81.568 31.117 81.1486 30.747C80.754 30.377 80.162 30.0933 79.3726 29.896L76.8566 29.23C75.1793 28.786 73.946 28.1817 73.1566 27.417C72.3673 26.6523 71.9726 25.604 71.9726 24.272C71.9726 23.5567 72.1206 22.8907 72.4166 22.274C72.7126 21.6327 73.1443 21.09 73.7116 20.646C74.3036 20.1773 75.0313 19.8197 75.8946 19.573C76.758 19.3017 77.7446 19.166 78.8546 19.166C79.7426 19.166 80.5443 19.24 81.2596 19.388C81.9996 19.5113 82.6286 19.6963 83.1466 19.943C83.6893 20.165 84.1086 20.4487 84.4046 20.794C84.7006 21.1393 84.8486 21.5093 84.8486 21.904C84.8486 22.2987 84.7623 22.644 84.5896 22.94C84.417 23.2113 84.195 23.4333 83.9236 23.606C83.4796 23.3347 82.8136 23.0387 81.9256 22.718C81.0623 22.3973 80.125 22.237 79.1136 22.237C78.0776 22.237 77.2636 22.422 76.6716 22.792C76.0796 23.1373 75.7836 23.6307 75.7836 24.272C75.7836 24.7653 75.944 25.1723 76.2646 25.493C76.61 25.8137 77.1896 26.0727 78.0036 26.27L80.1496 26.825C82.0243 27.3183 83.4056 27.9843 84.2936 28.823C85.1816 29.6617 85.6256 30.7963 85.6256 32.227ZM105.749 28.342C105.749 29.748 105.539 31.0183 105.12 32.153C104.7 33.2877 104.108 34.2497 103.344 35.039C102.604 35.8283 101.691 36.445 100.606 36.889C99.5204 37.3083 98.3117 37.518 96.9797 37.518C95.6477 37.518 94.4391 37.3083 93.3537 36.889C92.2684 36.445 91.3434 35.8283 90.5787 35.039C89.8387 34.2497 89.2591 33.2877 88.8397 32.153C88.4204 31.0183 88.2107 29.748 88.2107 28.342C88.2107 26.936 88.4204 25.6657 88.8397 24.531C89.2591 23.3963 89.8511 22.4343 90.6157 21.645C91.3804 20.8557 92.3054 20.2513 93.3907 19.832C94.4761 19.388 95.6724 19.166 96.9797 19.166C98.2871 19.166 99.4834 19.388 100.569 19.832C101.654 20.2513 102.579 20.868 103.344 21.682C104.108 22.4713 104.7 23.4333 105.12 24.568C105.539 25.678 105.749 26.936 105.749 28.342ZM96.9797 22.274C95.4997 22.274 94.3281 22.8043 93.4647 23.865C92.6014 24.9257 92.1697 26.418 92.1697 28.342C92.1697 30.266 92.5891 31.7583 93.4277 32.819C94.2664 33.855 95.4504 34.373 96.9797 34.373C98.5091 34.373 99.6931 33.855 100.532 32.819C101.37 31.7583 101.79 30.266 101.79 28.342C101.79 26.4427 101.358 24.9627 100.495 23.902C99.6561 22.8167 98.4844 22.274 96.9797 22.274ZM111.54 37.222C110.825 37.222 110.294 37.0863 109.949 36.815C109.604 36.5437 109.431 36.0873 109.431 35.446V12.987C109.604 12.9377 109.85 12.876 110.171 12.802C110.492 12.728 110.837 12.691 111.207 12.691C111.922 12.691 112.453 12.8267 112.798 13.098C113.143 13.3693 113.316 13.8257 113.316 14.467V36.926C113.119 37 112.86 37.0617 112.539 37.111C112.243 37.185 111.91 37.222 111.54 37.222ZM131.108 19.314C131.651 19.314 132.095 19.4497 132.44 19.721C132.785 19.9677 132.958 20.3747 132.958 20.942C132.958 21.238 132.859 21.7437 132.662 22.459C132.489 23.1497 132.243 23.9637 131.922 24.901C131.601 25.8383 131.244 26.8497 130.849 27.935C130.454 29.0203 130.035 30.1057 129.591 31.191C129.147 32.2517 128.703 33.2753 128.259 34.262C127.84 35.224 127.445 36.0503 127.075 36.741C126.878 36.8643 126.582 36.9753 126.187 37.074C125.792 37.1973 125.348 37.259 124.855 37.259C123.646 37.259 122.857 36.926 122.487 36.26C122.142 35.6433 121.685 34.6813 121.118 33.374C120.551 32.042 119.971 30.599 119.379 29.045C118.787 27.4663 118.207 25.9 117.64 24.346C117.097 22.7673 116.666 21.4107 116.345 20.276C116.567 20.0047 116.863 19.7827 117.233 19.61C117.603 19.4127 117.998 19.314 118.417 19.314C118.984 19.314 119.428 19.4497 119.749 19.721C120.094 19.9677 120.366 20.4117 120.563 21.053L122.598 27.417C122.746 27.8857 122.919 28.4037 123.116 28.971C123.313 29.5383 123.511 30.118 123.708 30.71C123.905 31.2773 124.103 31.8323 124.3 32.375C124.497 32.893 124.658 33.337 124.781 33.707H124.966C125.805 31.3883 126.606 29.0573 127.371 26.714C128.136 24.346 128.802 22.015 129.369 19.721C129.838 19.4497 130.417 19.314 131.108 19.314Z" fill="#002B6B"/>
</svg>
