<svg width="30" height="29" viewBox="0 0 30 29" fill="none" xmlns="http://www.w3.org/2000/svg">
<path d="M20.751 0.729209C19.8435 3.15291 18.9359 5.57661 18.0171 7.98909C16.2243 12.6906 14.4316 17.3809 12.6388 22.0825C12.594 22.2059 12.5268 22.3293 12.4259 22.5425C11.7537 20.9043 11.1038 19.3446 10.4763 17.7849C9.55755 15.5183 8.66116 13.2517 7.75358 10.9963C7.63033 10.7045 7.49588 10.4016 7.33902 10.1323C7.02529 9.57123 6.56589 9.27949 5.8824 9.26827C4.23531 9.2346 2.57702 9.27949 0.929932 9.09995C1.28848 8.17985 1.60221 7.24852 2.0616 6.36207C3.07002 4.43209 4.79555 3.32122 6.53228 2.19914C8.42587 0.987287 10.5436 0.538455 12.7285 0.190609C15.4512 -0.235783 18.1067 0.100842 20.751 0.729209Z" fill="#009A8E"/>
<path d="M17.188 28.2427C18.5213 25.7067 19.8435 23.1596 21.1881 20.6349C23.4738 16.3149 25.7708 12.0061 28.0677 7.6973C28.1686 7.51777 28.2134 7.29335 28.4039 7.16992C29.0538 8.39299 29.5244 9.64973 29.7485 11.0299C30.0398 12.8252 30.1294 14.6093 29.7373 16.3935C29.6028 16.9769 29.6364 17.5941 29.5019 18.1776C28.8297 21.1399 27.205 23.5187 24.8296 25.3701C22.5887 27.1094 19.9331 27.7714 17.1992 28.2314L17.188 28.2427Z" fill="#25346F"/>
<path d="M0.0112156 13.3751C0.717111 14.5196 1.18771 15.7876 1.75914 16.9995C3.0813 19.8383 4.36983 22.6884 5.66957 25.5273C5.44548 25.4936 5.27741 25.359 5.10934 25.2243C2.6331 23.1373 0.873973 20.6462 0.392171 17.3473C0.201691 16.0232 0.0224094 14.7104 0 13.3751H0.0112156Z" fill="#25346F"/>
</svg>
