<svg xmlns="http://www.w3.org/2000/svg" viewBox="0 0 512 126"><path fill="#249d8d" ="evenodd" d="M11.5 1.4C7.546 3.143 3.051 7.717 1.36 11.718.423 13.934 0 19.459 0 29.468V44l13.25.001H26.5l10 26.135C42 84.511 46.986 96.944 47.581 97.765c.84 1.161 5.042-9.078 18.925-46.127C76.321 25.447 84.16 3.83 83.926 3.6 83.47 3.153 25.001-.026 18.432.039 16.269.061 13.15.673 11.5 1.4m209.228 80.322c1.775.221 4.925.224 7 .008 2.074-.217.622-.397-3.228-.402-3.85-.004-5.548.173-3.772.394m16.522-.033c.963.252 2.537.252 3.5 0 .963-.251.175-.457-1.75-.457s-2.713.206-1.75.457"/><path fill="##000000" ="evenodd" d="M421.142 13.328c-1.007 1.215-1.206 10.443-.932 43.357.366 44.042.478 45.151 5.107 50.194 4.216 4.594 15.355 7.337 21.032 5.179 2.587-.984 2.737-1.369 2.453-6.303l-.302-5.255-5.226-.525c-8.537-.859-8.147 1.246-8.237-44.46-.065-32.922-.327-40.234-1.483-41.39-2.142-2.141-10.833-2.699-12.412-.797M93.386 72.617c-14.363 27.435-25.986 50.035-25.829 50.221.715.846 38.276-2.168 40.943-3.286 4.247-1.779 9.369-7.36 10.57-11.517.644-2.228.912-18.644.726-44.418l-.296-40.884-26.114 49.884m76.938-31.222c-2.297.743-5.715 2.302-7.596 3.464-3.571 2.207-4.728 1.983-4.728-.919 0-.949-.712-1.999-1.582-2.333-2.723-1.045-9.963-.662-11.218.593-1.757 1.757-1.71 65.73.05 68.103 1.648 2.22 10.183 3.413 12.236 1.709 1.268-1.053 1.515-4.85 1.52-23.384.003-12.171.466-23.787 1.029-25.814 2.169-7.811 10.854-11.637 17.981-7.923 2.225 1.16 4.649 2.109 5.387 2.109 1.734 0 9.597-8.512 9.597-10.388 0-2.051-8.088-5.684-13.714-6.161-2.632-.223-6.665.202-8.962.944M223 40.651c-9.557 1.761-15.491 5.556-19.8 12.666-6.237 10.292-7.75 28.01-3.501 41.001 2.424 7.412 10.131 14.702 18.38 17.385 7.373 2.399 16.768 2.357 23.682-.105 5.27-1.876 13.239-7.26 13.239-8.943 0-.687-1.782-2.989-3.96-5.116l-3.96-3.867-3.877 2.687c-5.048 3.499-9.126 4.607-14.874 4.044-6.134-.6-9.009-2.109-12.651-6.638-2.225-2.767-3.026-4.839-3.091-8L212.5 81.5l22.236-.269 22.235-.269.652-2.595c1.048-4.178-1.172-16.678-3.942-22.193-2.934-5.841-7.421-10.273-13.208-13.045-4.185-2.005-13.143-3.276-17.473-2.478m68.734.388c-8.722 2.169-15.466 7.48-17.598 13.86-1.75 5.236-1.385 12.692.833 17.04 3.422 6.709 7.292 8.26 27.47 11.011C311.606 84.2 314 85.809 314 90.721c0 7.107-4.235 9.779-15.5 9.779-7.09 0-11.916-1.381-16.555-4.738-3.104-2.247-4.434-1.731-8.925 3.464l-3.48 4.027 3.214 2.683c5.265 4.395 15.506 7.512 24.746 7.532 20.852.044 33.007-10.031 31.144-25.815-.833-7.051-3.392-10.712-9.697-13.874-5.235-2.624-7.129-3.027-20.447-4.345-7.361-.729-10.888-3.003-11.314-7.295-.241-2.428.381-3.86 2.673-6.152 2.774-2.774 3.512-2.987 10.329-2.987 5.431 0 8.313.52 11.073 2 2.053 1.1 4.439 2 5.303 2 1.915 0 8.436-6.726 8.436-8.703 0-.782-2.812-2.696-6.25-4.252-7.015-3.177-20.359-4.662-27.016-3.006m73.413-.011c-10.054 2.085-17.717 9.396-20.867 19.908-2.057 6.866-2.284 23.444-.421 30.781 3.42 13.469 13.921 21.483 28.15 21.483 12.176 0 21.167-5.376 26.471-15.828 2.865-5.646 2.98-6.392 3-19.372.024-15.891-1.436-21.396-7.496-28.281-6.585-7.481-18.035-10.932-28.837-8.691m83.853.797c0 .894 3.284 10.21 12.929 36.675 9.358 25.678 12.378 33.488 13.003 33.622.312.068 2.732.236 5.377.375 3.967.208 5.05-.12 6.183-1.872 1.281-1.98 12.935-32.934 20.113-53.421.828-2.363 2.381-6.338 3.45-8.833 3.058-7.134 2.9-7.371-4.933-7.371-4.305 0-7.249.467-7.871 1.25-.546.688-4.447 11.584-8.669 24.214-4.222 12.63-7.833 23.121-8.025 23.312-.192.192-3.808-10.03-8.037-22.715-5.589-16.768-8.272-23.474-9.826-24.563-2.267-1.587-13.694-2.149-13.694-.673M220 54.446c-4.102 2.24-7.349 7.488-7.429 12.005L212.5 70.5h15c14.714 0 15.006-.042 15.314-2.21.523-3.679-3.363-11.045-6.996-13.26-3.896-2.375-11.992-2.674-15.818-.584m147.333-.349c-7.319 2.119-10.993 11.781-10.077 26.498.285 4.589 1.251 9.672 2.23 11.735 4.574 9.639 18.791 10.43 24.398 1.358 4.008-6.485 4.632-23.046 1.202-31.925-1.137-2.945-4.859-6.354-8.401-7.696-3.267-1.238-4.99-1.233-9.352.03M.044 85.538C.002 109.577.09 110.752 2.25 114.98c1.238 2.422 3.979 5.78 6.093 7.462 3.631 2.889 4.329 3.058 12.666 3.058 4.854 0 9.104-.279 9.445-.621.56-.56-4.834-12.1-24.017-51.379l-6.348-13-.045 25.038"/></svg>