<svg xmlns="http://www.w3.org/2000/svg" width="512" height="185" viewBox="0 0 512 185" version="1.1"><path d="M 203.300 121 C 203.300 124.025, 203.487 125.263, 203.716 123.750 C 203.945 122.237, 203.945 119.763, 203.716 118.250 C 203.487 116.737, 203.300 117.975, 203.300 121" stroke="none" fill="#0c0c0c" ="evenodd"/><path d="M 182.500 1.958 C 169.383 5.421, 155.185 12.024, 143.431 20.127 C 135.153 25.833, 133.608 25.997, 122.500 22.344 C 112.170 18.947, 94.234 18.030, 83.322 20.342 C 67.965 23.595, 56.148 29.991, 45.065 41.047 C 31.943 54.138, 25.325 68.817, 24.273 87.162 C 23.968 92.477, 24.074 97.652, 24.508 98.662 C 24.942 99.673, 25.198 101.513, 25.077 102.750 C 24.956 103.987, 25.325 105, 25.897 105 C 26.469 105, 26.695 105.632, 26.398 106.404 C 25.642 108.375, 30.582 120.355, 35.088 127.477 L 38.869 133.453 35.530 137.529 C 27.950 146.779, 0 183.517, 0 184.230 C -0 186.554, 4.789 183.195, 35.317 159.464 C 42.366 153.984, 48.666 149.125, 49.317 148.668 C 50.046 148.155, 52.755 149.195, 56.375 151.378 C 63.569 155.716, 72.186 158.642, 81.672 159.968 C 104.208 163.119, 129.868 151.437, 142.660 132.204 C 147.196 125.385, 152.780 111.024, 153.727 103.742 C 154.831 95.263, 154.295 83.834, 152.571 79.079 L 150.968 74.657 159.833 65.579 C 175.471 49.563, 185.797 33.585, 191.515 16.551 C 192.977 12.194, 194.332 6.688, 194.525 4.315 C 194.861 0.200, 194.752 0.003, 192.188 0.055 C 190.710 0.085, 186.350 0.942, 182.500 1.958 M 155.413 28.971 C 141.629 35.881, 127.087 46.440, 115.124 58.225 C 106.869 66.357, 94.173 81.831, 91.476 87.046 C 90.163 89.586, 89.656 89.728, 79.536 90.382 C 69.634 91.022, 53.567 94.417, 47.622 97.126 C 42.170 99.610, 43.781 96.537, 52.091 88.597 C 69.221 72.230, 85.997 60.079, 104 50.998 C 109.225 48.363, 114.578 45.049, 115.896 43.634 L 118.291 41.061 115.778 40.106 C 106.637 36.630, 90.786 36.113, 79.766 38.932 C 64.504 42.835, 53.054 50.650, 45.039 62.633 C 33.426 79.996, 32.389 99.960, 42.100 119.198 C 43.711 122.389, 45.203 125, 45.415 125 C 45.628 125, 48.209 122.030, 51.151 118.400 C 57.226 110.904, 60.208 109, 65.874 109 C 73.835 109, 78.783 116.798, 75.622 124.363 C 74.743 126.466, 70.982 130.522, 66.066 134.665 C 58.090 141.391, 57.993 141.527, 60.021 143.193 C 66.560 148.567, 85.354 151.522, 97.263 149.049 C 110.980 146.201, 125.229 135.580, 131.704 123.377 C 136.787 113.799, 138.277 107.112, 137.827 95.913 C 137.611 90.516, 137.123 85.790, 136.744 85.411 C 135.148 83.815, 129.142 90.400, 124.229 99.131 C 117.197 111.632, 107.721 124.284, 97.275 135.120 C 92.554 140.018, 88.594 143.907, 88.474 143.762 C 88.355 143.618, 88.885 139.225, 89.651 134 C 91.338 122.500, 91.354 104.001, 89.681 101.293 C 88.867 99.975, 89.739 99.010, 98.500 91.540 C 102.900 87.789, 114.017 77.270, 123.204 68.166 L 139.908 51.614 139.526 56.307 C 139.316 58.888, 139.487 61, 139.908 61 C 141.275 61, 153.494 47.689, 159.184 40 C 166.865 29.622, 170.594 23, 168.758 23 C 167.971 23, 161.965 25.687, 155.413 28.971 M 342.770 46.966 C 333.840 53.991, 339.344 67.983, 350.500 66.614 C 358.092 65.683, 362.146 57.804, 358.805 50.472 C 356.398 45.189, 347.502 43.244, 342.770 46.966 M 183.211 59.836 C 183.400 64.732, 183.934 67.483, 184.750 67.753 C 185.680 68.061, 186 66.137, 186 60.250 C 186 53.790, 185.717 52.333, 184.461 52.333 C 183.187 52.333, 182.972 53.624, 183.211 59.836 M 195.667 52.667 C 194.583 53.750, 194.893 68, 196 68 C 196.550 68, 197 65.427, 197 62.281 L 197 56.563 200.577 62.281 C 202.544 65.427, 204.569 68, 205.077 68 C 205.585 68, 206 64.625, 206 60.500 C 206 56.167, 205.578 53, 205 53 C 204.450 53, 204 55.131, 204 57.737 L 204 62.473 200.473 57.237 C 196.723 51.668, 196.694 51.640, 195.667 52.667 M 216.246 53.154 C 214.641 54.759, 214.643 58.462, 216.250 59.782 C 216.938 60.346, 218.625 60.964, 220 61.154 C 224.100 61.721, 223.133 64.500, 218.835 64.500 C 214.130 64.500, 213.045 65.608, 216.297 67.089 C 221.551 69.483, 227.363 65.416, 225 61 C 224.411 59.900, 223.525 59, 223.030 59 C 222.535 59, 220.927 58.543, 219.456 57.983 C 215.629 56.528, 217.897 53.829, 222.221 54.694 C 224.564 55.163, 225.161 54.980, 224.807 53.902 C 224.210 52.088, 217.866 51.534, 216.246 53.154 M 231.245 53.250 C 231.471 53.938, 232.634 54.644, 233.828 54.820 C 235.799 55.110, 236 55.734, 236 61.570 C 236 65.190, 236.437 68, 237 68 C 237.569 68, 238 65.057, 238 61.171 C 238 54.826, 238.152 54.347, 240.149 54.421 C 241.331 54.464, 242.493 53.938, 242.732 53.250 C 243.049 52.338, 241.498 52, 237 52 C 232.514 52, 230.946 52.341, 231.245 53.250 M 249.211 59.836 C 249.612 70.236, 251.658 70.514, 251.906 60.203 C 252.065 53.603, 251.840 52.333, 250.509 52.333 C 249.175 52.333, 248.968 53.529, 249.211 59.836 M 259.268 53.250 C 259.507 53.938, 260.669 54.464, 261.851 54.421 C 263.848 54.347, 264 54.826, 264 61.171 C 264 65.057, 264.431 68, 265 68 C 265.563 68, 266 65.190, 266 61.570 C 266 55.734, 266.201 55.110, 268.172 54.820 C 269.366 54.644, 270.529 53.938, 270.755 53.250 C 271.054 52.341, 269.486 52, 265 52 C 260.502 52, 258.951 52.338, 259.268 53.250 M 277 58.345 C 277 65.175, 278.660 68, 282.674 68 C 286.307 68, 288 64.876, 288 58.171 C 288 49.860, 285.699 50.112, 285 58.500 C 284.569 63.667, 284.222 64.500, 282.500 64.500 C 280.778 64.500, 280.431 63.667, 280 58.500 C 279.292 50.006, 277 49.888, 277 58.345 M 294.268 53.250 C 294.507 53.938, 295.669 54.464, 296.851 54.421 C 298.848 54.347, 299 54.826, 299 61.171 C 299 65.057, 299.431 68, 300 68 C 300.563 68, 301 65.190, 301 61.570 C 301 55.734, 301.201 55.110, 303.172 54.820 C 304.366 54.644, 305.529 53.938, 305.755 53.250 C 306.054 52.341, 304.486 52, 300 52 C 295.502 52, 293.951 52.338, 294.268 53.250 M 313.324 53.250 C 312.888 53.938, 312.495 56.750, 312.452 59.500 C 312.332 67.122, 315.745 69.968, 320.777 66.443 C 322.515 65.226, 323 63.903, 323 60.378 C 323 54.039, 321.667 52, 317.524 52 C 315.651 52, 313.761 52.563, 313.324 53.250 M 316.094 54.942 C 315.342 55.406, 314.992 57.395, 315.185 60.099 C 315.445 63.728, 315.851 64.500, 317.500 64.500 C 319.168 64.500, 319.550 63.733, 319.800 59.876 C 320.106 55.142, 318.732 53.311, 316.094 54.942 M 395.024 68.603 C 383.202 71.780, 373.796 79.587, 368.235 90.839 C 364.600 98.192, 364.500 98.691, 364.500 109.496 C 364.500 120.316, 364.595 120.790, 368.266 128.220 C 378.304 148.539, 403.212 157.675, 422.787 148.217 C 427.741 145.823, 428.181 146.765, 425.009 152.982 C 421.491 159.877, 414.267 164.190, 406.118 164.260 C 400.591 164.307, 393.090 161.573, 391.445 158.911 C 391.018 158.221, 387.943 160.587, 383.396 165.103 L 376.038 172.412 378.208 174.722 C 387.856 184.991, 408.901 188.069, 423.223 181.305 C 432.491 176.928, 439.258 170.332, 443.445 161.591 C 448.811 150.388, 448.797 150.138, 442.492 145.260 C 435.753 140.046, 430.662 133.253, 427.871 125.750 C 426.695 122.588, 425.439 120, 425.082 120 C 424.724 120, 423.651 121.321, 422.697 122.935 C 421.681 124.656, 418.690 126.983, 415.470 128.558 C 405.578 133.398, 394.364 130.582, 388.375 121.754 C 384.358 115.834, 383.480 110.099, 385.533 103.195 C 389.377 90.266, 403.368 84.392, 415.691 90.533 C 424.102 94.725, 427.135 100.990, 428.440 116.869 C 429.652 131.611, 443.458 146.360, 460 150.586 C 478.866 155.405, 499.534 145.217, 507.955 126.947 C 509.733 123.089, 510.940 119.287, 510.638 118.498 C 510.335 117.709, 510.518 116.798, 511.044 116.473 C 511.610 116.123, 512 105.872, 512 91.330 L 512 66.777 508.250 67.438 C 502.911 68.377, 496.906 72.857, 494.030 78.044 C 491.743 82.170, 491.531 83.722, 491.164 99 C 490.721 117.419, 489.935 120.216, 483.645 125.739 C 478.962 129.850, 473.912 131.374, 467.248 130.686 C 455.631 129.487, 449.726 122.234, 448.006 107.054 C 447.239 100.278, 446.105 95.911, 443.934 91.361 C 435.117 72.887, 414.603 63.342, 395.024 68.603 M 182.500 75.418 C 174.480 76.964, 167 79.757, 167 81.205 C 167 82.150, 170.045 93.258, 170.432 93.726 C 170.535 93.851, 172.900 93.086, 175.687 92.027 C 182.774 89.334, 190.044 88.529, 194.374 89.958 C 198.700 91.386, 202 95.283, 202 98.964 C 202 101.550, 201.771 101.667, 196.250 101.884 C 176.556 102.659, 162.417 113.070, 161.951 127.138 C 161.577 138.422, 164.711 144.982, 172.728 149.695 C 181.294 154.730, 195.188 152.981, 201.426 146.083 C 203.565 143.718, 204.957 144.728, 204.985 148.667 C 204.999 150.736, 205.428 150.833, 214.500 150.833 C 223.155 150.833, 225.058 150.392, 223.428 148.762 C 223.114 148.447, 222.899 138.135, 222.951 125.845 C 223.049 102.700, 222.157 94.166, 219.001 88.032 C 213.363 77.077, 199.228 72.192, 182.500 75.418 M 262.500 74.935 C 257.988 76.033, 253.728 78.498, 250.325 81.979 L 247.271 85.103 246.502 81.801 C 246.079 79.986, 245.813 77.938, 245.910 77.250 C 246.041 76.329, 243.695 76, 236.985 76 C 231.319 76, 228.110 76.369, 228.485 76.976 C 228.817 77.513, 229.060 94.388, 229.025 114.476 L 228.961 151 238.981 151 L 249 151 249.022 126.750 C 249.042 104.979, 249.241 102.067, 250.969 98.259 C 254.742 89.946, 264.180 88.741, 268.459 96.026 C 270.346 99.238, 270.524 101.447, 270.812 125.298 L 271.124 151.096 281.062 150.925 L 291 150.753 291 126.442 C 291 111.648, 291.418 101.028, 292.067 99.315 C 294.510 92.867, 301.188 89.431, 306.145 92.072 C 312.153 95.273, 313.215 100.580, 313.046 126.549 C 312.970 138.125, 313.210 148.384, 313.579 149.346 C 314.160 150.859, 315.527 151.071, 323.705 150.919 L 333.160 150.743 332.772 122.621 C 332.352 92.223, 331.927 89.526, 326.422 82.309 C 318.483 71.900, 300.775 72.011, 291.079 82.530 C 288.836 84.964, 287 86.517, 287 85.981 C 287 85.444, 285.375 83.207, 283.389 81.009 C 278.287 75.362, 270.294 73.038, 262.500 74.935 M 339 113.423 L 339 150.846 349.500 150.846 L 360 150.846 360 113.423 L 360 76 349.500 76 L 339 76 339 113.423 M 455.455 97.455 C 453.907 99.002, 453 101.052, 453 103 C 453 106.772, 456.881 111, 460.344 111 C 464.583 111, 467.455 107.770, 467.455 103 C 467.455 95.663, 460.472 92.437, 455.455 97.455 M 473.455 97.455 C 471.907 99.002, 471 101.052, 471 103 C 471 106.839, 474.900 111, 478.500 111 C 482.100 111, 486 106.839, 486 103 C 486 99.161, 482.100 95, 478.500 95 C 477.075 95, 474.805 96.105, 473.455 97.455 M 191.749 116.180 C 189.686 116.740, 186.649 118.460, 184.999 120.001 C 182.523 122.314, 182 123.590, 182 127.319 C 182 133.306, 182.671 134.779, 186.243 136.625 C 189.815 138.473, 194.685 137.823, 198.244 135.023 C 201.519 132.447, 204.194 125.135, 203.810 119.809 C 203.502 115.533, 203.469 115.499, 199.500 115.330 C 197.300 115.237, 193.812 115.619, 191.749 116.180" stroke="none" fill="#040404" ="evenodd"/></svg>